<svg width="1728" height="1117" viewBox="0 0 1728 1117" fill="none" xmlns="http://www.w3.org/2000/svg">
<g clip-path="url(#clip0_373_89)">
<rect width="1728" height="1117" fill="#212121"/>
<mask id="mask0_373_89" style="mask-type:luminance" maskUnits="userSpaceOnUse" x="0" y="0" width="1728" height="1117">
<path d="M1728 0H0V1117H1728V0Z" fill="white"/>
</mask>
<g mask="url(#mask0_373_89)">
<mask id="mask1_373_89" style="mask-type:luminance" maskUnits="userSpaceOnUse" x="0" y="0" width="1728" height="1117">
<path d="M1728 0H0V1117H1728V0Z" fill="white"/>
</mask>
<g mask="url(#mask1_373_89)">
<path d="M1728 0H0V1117H1728V0Z" fill="#212121"/>
<path fill-rule="evenodd" clip-rule="evenodd" d="M363.542 392.841C436.886 403.751 448.629 507.887 498.324 562.921C533.705 602.103 587.288 621.014 611.8 667.769C639.47 720.546 667.819 785.03 643.229 839.31C618.751 893.342 543.791 895.762 493.947 927.921C448.151 957.469 416.288 1006.05 363.542 1019.76C300.268 1036.22 218.222 1058.16 172.385 1011.54C125.018 963.366 182.623 878.252 161.351 814.129C139.835 749.27 43.5034 714.904 51.4665 647.034C59.185 581.249 144.743 559.8 196.099 517.969C251.478 472.862 292.894 382.334 363.542 392.841Z" fill="url(#paint0_linear_373_89)"/>
<path fill-rule="evenodd" clip-rule="evenodd" d="M1126.12 -107.666C1191.64 -88.4578 1201.5 1.1479 1250.43 48.7717C1288.61 85.9386 1354.52 90.2573 1378.38 137.9C1403.39 187.842 1396.3 248.97 1376.92 301.357C1358.03 352.418 1320.93 396.121 1273.2 422.3C1228.85 446.62 1175.9 429.974 1126.12 438.906C1060.14 450.745 987.754 524.286 934.947 482.99C881.399 441.115 941.804 350.771 928.238 284.161C917.145 229.695 862.951 190.278 864.015 134.704C865.272 69.1222 886.362 0.688721 934.521 -43.8446C985.184 -90.6936 1059.9 -127.08 1126.12 -107.666Z" fill="url(#paint1_linear_373_89)"/>
<path fill-rule="evenodd" clip-rule="evenodd" d="M1356.27 716.632C1415.84 722.05 1458.08 774.641 1504.1 812.847C1543.62 845.654 1577.3 882.185 1606.54 924.407C1637.97 969.779 1671.89 1014.54 1681.46 1068.9C1691.94 1128.4 1698.78 1197.28 1663.21 1246.11C1627.62 1294.98 1559.82 1308.91 1500.05 1317.93C1451.09 1325.33 1405.1 1300.71 1356.27 1292.46C1316.24 1285.7 1277.81 1281.85 1238.05 1273.67C1180.93 1261.92 1112.17 1274.81 1070.78 1233.73C1030.02 1193.26 1019.61 1125.04 1031.77 1068.9C1043.55 1014.51 1106.92 989.197 1134.24 940.713C1161.98 891.495 1152.29 824.597 1192.05 784.466C1234.46 741.665 1296.27 711.175 1356.27 716.632Z" fill="url(#paint2_linear_373_89)"/>
</g>
<path d="M1605.5 807C1652.17 807 1690 773.197 1690 731.5C1690 689.803 1652.17 656 1605.5 656C1558.83 656 1521 689.803 1521 731.5C1521 773.197 1558.83 807 1605.5 807Z" fill="#212121"/>
<path d="M50.5 896C97.1681 896 135 862.197 135 820.5C135 778.803 97.1681 745 50.5 745C3.83194 745 -34 778.803 -34 820.5C-34 862.197 3.83194 896 50.5 896Z" fill="#212121"/>
<path d="M123.5 820.5C123.5 854.663 92.0688 884.5 50.5 884.5C8.93116 884.5 -22.5 854.663 -22.5 820.5C-22.5 786.337 8.93116 756.5 50.5 756.5C92.0688 756.5 123.5 786.337 123.5 820.5Z" stroke="url(#paint3_linear_373_89)" stroke-opacity="0.13" stroke-width="23"/>
<path d="M292.5 253C339.168 253 377 219.197 377 177.5C377 135.803 339.168 102 292.5 102C245.832 102 208 135.803 208 177.5C208 219.197 245.832 253 292.5 253Z" fill="#212121"/>
<path d="M365.5 177.5C365.5 211.663 334.069 241.5 292.5 241.5C250.931 241.5 219.5 211.663 219.5 177.5C219.5 143.337 250.931 113.5 292.5 113.5C334.069 113.5 365.5 143.337 365.5 177.5Z" stroke="url(#paint4_linear_373_89)" stroke-opacity="0.13" stroke-width="23"/>
<path d="M685 618C695.493 618 704 609.046 704 598C704 586.954 695.493 578 685 578C674.507 578 666 586.954 666 598C666 609.046 674.507 618 685 618Z" fill="url(#paint5_linear_373_89)" fill-opacity="0.13"/>
<path d="M1028 656C1038.49 656 1047 647.046 1047 636C1047 624.954 1038.49 616 1028 616C1017.51 616 1009 624.954 1009 636C1009 647.046 1017.51 656 1028 656Z" fill="url(#paint6_linear_373_89)" fill-opacity="0.13"/>
<path d="M1578 598C1588.49 598 1597 589.046 1597 578C1597 566.954 1588.49 558 1578 558C1567.51 558 1559 566.954 1559 578C1559 589.046 1567.51 598 1578 598Z" fill="url(#paint7_linear_373_89)" fill-opacity="0.13"/>
<path d="M609 253C619.493 253 628 244.046 628 233C628 221.954 619.493 213 609 213C598.507 213 590 221.954 590 233C590 244.046 598.507 253 609 253Z" fill="url(#paint8_linear_373_89)" fill-opacity="0.13"/>
<path d="M1578 355C1634.33 355 1680 309.333 1680 253C1680 196.667 1634.33 151 1578 151C1521.67 151 1476 196.667 1476 253C1476 309.333 1521.67 355 1578 355Z" fill="url(#paint9_linear_373_89)"/>
<path d="M1643 232C1663.43 232 1680 212.972 1680 189.5C1680 166.028 1663.43 147 1643 147C1622.57 147 1606 166.028 1606 189.5C1606 212.972 1622.57 232 1643 232Z" fill="#212121"/>
<path d="M690.5 355C725.018 355 753 327.995 753 294.683C753 261.371 725.018 234.366 690.5 234.366C655.982 234.366 628 261.371 628 294.683C628 327.995 655.982 355 690.5 355Z" fill="url(#paint10_linear_373_89)"/>
<path d="M730.328 282.264C742.849 282.264 752.999 271.012 752.999 257.132C752.999 243.252 742.849 232 730.328 232C717.807 232 707.656 243.252 707.656 257.132C707.656 271.012 717.807 282.264 730.328 282.264Z" fill="#212121"/>
</g>
<path d="M784.396 783C783.224 783 782.198 782.658 781.319 781.975C780.44 781.292 780 780.494 780 779.583C780 778.672 780.44 777.875 781.319 777.192C782.198 776.508 783.224 776.167 784.396 776.167C785.568 776.167 786.594 776.508 787.473 777.192C788.352 777.875 788.792 778.672 788.792 779.583C788.792 780.494 788.352 781.292 787.473 781.975C786.594 782.658 785.568 783 784.396 783ZM784.396 755.667C783.224 755.667 782.198 755.325 781.319 754.642C780.44 753.958 780 753.161 780 752.25C780 751.339 780.44 750.542 781.319 749.858C782.198 749.175 783.224 748.833 784.396 748.833C785.568 748.833 786.594 749.175 787.473 749.858C788.352 750.542 788.792 751.339 788.792 752.25C788.792 753.161 788.352 753.958 787.473 754.642C786.594 755.325 785.568 755.667 784.396 755.667ZM810.771 813.75C808.28 813.75 806.192 813.095 804.507 811.785C802.822 810.476 801.979 808.853 801.979 806.917C801.979 804.981 802.822 803.358 804.507 802.048C806.192 800.738 808.28 800.083 810.771 800.083C813.262 800.083 815.35 800.738 817.035 802.048C818.72 803.358 819.563 804.981 819.563 806.917C819.563 808.853 818.72 810.476 817.035 811.785C815.35 813.095 813.262 813.75 810.771 813.75ZM810.771 786.417C808.28 786.417 806.192 785.762 804.507 784.452C802.822 783.142 801.979 781.519 801.979 779.583C801.979 777.647 802.822 776.024 804.507 774.715C806.192 773.405 808.28 772.75 810.771 772.75C813.262 772.75 815.35 773.405 817.035 774.715C818.72 776.024 819.563 777.647 819.563 779.583C819.563 781.519 818.72 783.142 817.035 784.452C815.35 785.762 813.262 786.417 810.771 786.417ZM810.771 759.083C808.28 759.083 806.192 758.428 804.507 757.119C802.822 755.809 801.979 754.186 801.979 752.25C801.979 750.314 802.822 748.691 804.507 747.381C806.192 746.072 808.28 745.417 810.771 745.417C813.262 745.417 815.35 746.072 817.035 747.381C818.72 748.691 819.563 750.314 819.563 752.25C819.563 754.186 818.72 755.809 817.035 757.119C815.35 758.428 813.262 759.083 810.771 759.083ZM810.771 731.75C808.28 731.75 806.192 731.095 804.507 729.785C802.822 728.476 801.979 726.853 801.979 724.917C801.979 722.981 802.822 721.358 804.507 720.048C806.192 718.738 808.28 718.083 810.771 718.083C813.262 718.083 815.35 718.738 817.035 720.048C818.72 721.358 819.563 722.981 819.563 724.917C819.563 726.853 818.72 728.476 817.035 729.785C815.35 731.095 813.262 731.75 810.771 731.75ZM845.938 789.833C842.274 789.833 839.161 788.837 836.596 786.844C834.032 784.851 832.75 782.431 832.75 779.583C832.75 776.736 834.032 774.316 836.596 772.323C839.161 770.33 842.274 769.333 845.938 769.333C849.601 769.333 852.714 770.33 855.279 772.323C857.843 774.316 859.125 776.736 859.125 779.583C859.125 782.431 857.843 784.851 855.279 786.844C852.714 788.837 849.601 789.833 845.938 789.833ZM845.938 762.5C842.274 762.5 839.161 761.503 836.596 759.51C834.032 757.517 832.75 755.097 832.75 752.25C832.75 749.403 834.032 746.983 836.596 744.99C839.161 742.997 842.274 742 845.938 742C849.601 742 852.714 742.997 855.279 744.99C857.843 746.983 859.125 749.403 859.125 752.25C859.125 755.097 857.843 757.517 855.279 759.51C852.714 761.503 849.601 762.5 845.938 762.5ZM845.938 813.75C843.447 813.75 841.359 813.095 839.673 811.785C837.988 810.476 837.146 808.853 837.146 806.917C837.146 804.981 837.988 803.358 839.673 802.048C841.359 800.738 843.447 800.083 845.938 800.083C848.428 800.083 850.516 800.738 852.202 802.048C853.887 803.358 854.729 804.981 854.729 806.917C854.729 808.853 853.887 810.476 852.202 811.785C850.516 813.095 848.428 813.75 845.938 813.75ZM845.938 731.75C843.447 731.75 841.359 731.095 839.673 729.785C837.988 728.476 837.146 726.853 837.146 724.917C837.146 722.981 837.988 721.358 839.673 720.048C841.359 718.738 843.447 718.083 845.938 718.083C848.428 718.083 850.516 718.738 852.202 720.048C853.887 721.358 854.729 722.981 854.729 724.917C854.729 726.853 853.887 728.476 852.202 729.785C850.516 731.095 848.428 731.75 845.938 731.75ZM845.938 830.833C844.765 830.833 843.74 830.492 842.86 829.808C841.981 829.125 841.542 828.328 841.542 827.417C841.542 826.506 841.981 825.708 842.86 825.025C843.74 824.342 844.765 824 845.938 824C847.11 824 848.135 824.342 849.015 825.025C849.894 825.708 850.333 826.506 850.333 827.417C850.333 828.328 849.894 829.125 849.015 829.808C848.135 830.492 847.11 830.833 845.938 830.833ZM845.938 707.833C844.765 707.833 843.74 707.492 842.86 706.808C841.981 706.125 841.542 705.328 841.542 704.417C841.542 703.506 841.981 702.708 842.86 702.025C843.74 701.342 844.765 701 845.938 701C847.11 701 848.135 701.342 849.015 702.025C849.894 702.708 850.333 703.506 850.333 704.417C850.333 705.328 849.894 706.125 849.015 706.808C848.135 707.492 847.11 707.833 845.938 707.833ZM881.104 789.833C877.441 789.833 874.327 788.837 871.763 786.844C869.199 784.851 867.917 782.431 867.917 779.583C867.917 776.736 869.199 774.316 871.763 772.323C874.327 770.33 877.441 769.333 881.104 769.333C884.767 769.333 887.881 770.33 890.445 772.323C893.01 774.316 894.292 776.736 894.292 779.583C894.292 782.431 893.01 784.851 890.445 786.844C887.881 788.837 884.767 789.833 881.104 789.833ZM881.104 762.5C877.441 762.5 874.327 761.503 871.763 759.51C869.199 757.517 867.917 755.097 867.917 752.25C867.917 749.403 869.199 746.983 871.763 744.99C874.327 742.997 877.441 742 881.104 742C884.767 742 887.881 742.997 890.445 744.99C893.01 746.983 894.292 749.403 894.292 752.25C894.292 755.097 893.01 757.517 890.445 759.51C887.881 761.503 884.767 762.5 881.104 762.5ZM881.104 813.75C878.613 813.75 876.525 813.095 874.84 811.785C873.155 810.476 872.313 808.853 872.313 806.917C872.313 804.981 873.155 803.358 874.84 802.048C876.525 800.738 878.613 800.083 881.104 800.083C883.595 800.083 885.683 800.738 887.368 802.048C889.053 803.358 889.896 804.981 889.896 806.917C889.896 808.853 889.053 810.476 887.368 811.785C885.683 813.095 883.595 813.75 881.104 813.75ZM881.104 731.75C878.613 731.75 876.525 731.095 874.84 729.785C873.155 728.476 872.313 726.853 872.313 724.917C872.313 722.981 873.155 721.358 874.84 720.048C876.525 718.738 878.613 718.083 881.104 718.083C883.595 718.083 885.683 718.738 887.368 720.048C889.053 721.358 889.896 722.981 889.896 724.917C889.896 726.853 889.053 728.476 887.368 729.785C885.683 731.095 883.595 731.75 881.104 731.75ZM881.104 830.833C879.932 830.833 878.906 830.492 878.027 829.808C877.148 829.125 876.708 828.328 876.708 827.417C876.708 826.506 877.148 825.708 878.027 825.025C878.906 824.342 879.932 824 881.104 824C882.276 824 883.302 824.342 884.181 825.025C885.06 825.708 885.5 826.506 885.5 827.417C885.5 828.328 885.06 829.125 884.181 829.808C883.302 830.492 882.276 830.833 881.104 830.833ZM881.104 707.833C879.932 707.833 878.906 707.492 878.027 706.808C877.148 706.125 876.708 705.328 876.708 704.417C876.708 703.506 877.148 702.708 878.027 702.025C878.906 701.342 879.932 701 881.104 701C882.276 701 883.302 701.342 884.181 702.025C885.06 702.708 885.5 703.506 885.5 704.417C885.5 705.328 885.06 706.125 884.181 706.808C883.302 707.492 882.276 707.833 881.104 707.833ZM916.271 813.75C913.78 813.75 911.692 813.095 910.007 811.785C908.322 810.476 907.479 808.853 907.479 806.917C907.479 804.981 908.322 803.358 910.007 802.048C911.692 800.738 913.78 800.083 916.271 800.083C918.762 800.083 920.85 800.738 922.535 802.048C924.22 803.358 925.063 804.981 925.063 806.917C925.063 808.853 924.22 810.476 922.535 811.785C920.85 813.095 918.762 813.75 916.271 813.75ZM916.271 786.417C913.78 786.417 911.692 785.762 910.007 784.452C908.322 783.142 907.479 781.519 907.479 779.583C907.479 777.647 908.322 776.024 910.007 774.715C911.692 773.405 913.78 772.75 916.271 772.75C918.762 772.75 920.85 773.405 922.535 774.715C924.22 776.024 925.063 777.647 925.063 779.583C925.063 781.519 924.22 783.142 922.535 784.452C920.85 785.762 918.762 786.417 916.271 786.417ZM916.271 759.083C913.78 759.083 911.692 758.428 910.007 757.119C908.322 755.809 907.479 754.186 907.479 752.25C907.479 750.314 908.322 748.691 910.007 747.381C911.692 746.072 913.78 745.417 916.271 745.417C918.762 745.417 920.85 746.072 922.535 747.381C924.22 748.691 925.063 750.314 925.063 752.25C925.063 754.186 924.22 755.809 922.535 757.119C920.85 758.428 918.762 759.083 916.271 759.083ZM916.271 731.75C913.78 731.75 911.692 731.095 910.007 729.785C908.322 728.476 907.479 726.853 907.479 724.917C907.479 722.981 908.322 721.358 910.007 720.048C911.692 718.738 913.78 718.083 916.271 718.083C918.762 718.083 920.85 718.738 922.535 720.048C924.22 721.358 925.063 722.981 925.063 724.917C925.063 726.853 924.22 728.476 922.535 729.785C920.85 731.095 918.762 731.75 916.271 731.75ZM942.646 783C941.474 783 940.448 782.658 939.569 781.975C938.69 781.292 938.25 780.494 938.25 779.583C938.25 778.672 938.69 777.875 939.569 777.192C940.448 776.508 941.474 776.167 942.646 776.167C943.818 776.167 944.844 776.508 945.723 777.192C946.602 777.875 947.042 778.672 947.042 779.583C947.042 780.494 946.602 781.292 945.723 781.975C944.844 782.658 943.818 783 942.646 783ZM942.646 755.667C941.474 755.667 940.448 755.325 939.569 754.642C938.69 753.958 938.25 753.161 938.25 752.25C938.25 751.339 938.69 750.542 939.569 749.858C940.448 749.175 941.474 748.833 942.646 748.833C943.818 748.833 944.844 749.175 945.723 749.858C946.602 750.542 947.042 751.339 947.042 752.25C947.042 753.161 946.602 753.958 945.723 754.642C944.844 755.325 943.818 755.667 942.646 755.667Z" fill="#626262"/>
<path d="M65.3814 354.713C62.0793 355.763 58.7222 355.927 55.31 355.205C51.8979 354.483 49.3112 353.138 47.5501 351.169L14.5293 311.794C12.7682 309.825 12.493 307.823 13.7038 305.789C14.9145 303.755 17.171 302.213 20.473 301.163C23.7751 300.113 27.1323 299.948 30.5444 300.67C33.9566 301.392 36.5432 302.738 38.3043 304.706L71.3251 344.081C73.0862 346.05 73.3614 348.052 72.1507 350.086C70.9399 352.12 68.6835 353.663 65.3814 354.713ZM111.611 409.838C108.308 410.888 104.951 411.052 101.539 410.33C98.127 409.608 95.5404 408.263 93.7793 406.294L67.3626 374.794C65.6015 372.825 65.3263 370.823 66.5371 368.789C67.7479 366.755 70.0043 365.213 73.3064 364.163C76.6085 363.113 79.9656 362.948 83.3777 363.67C86.7899 364.392 89.3765 365.738 91.1376 367.706L117.554 399.206C119.315 401.175 119.591 403.177 118.38 405.211C117.169 407.245 114.913 408.788 111.611 409.838ZM138.688 370.463C135.386 371.513 132.028 371.677 128.616 370.955C125.204 370.233 122.617 368.888 120.856 366.919L74.6272 311.794C72.8661 309.825 72.5909 307.823 73.8017 305.789C75.0125 303.755 77.2689 302.213 80.571 301.163C83.873 300.113 87.2302 299.948 90.6423 300.67C94.0545 301.392 96.6411 302.738 98.4022 304.706L144.631 359.831C146.392 361.8 146.668 363.802 145.457 365.836C144.246 367.87 141.99 369.413 138.688 370.463ZM167.086 331.088C163.783 332.138 160.426 332.302 157.014 331.58C153.602 330.858 151.015 329.513 149.254 327.544L136.376 311.794C134.615 309.825 134.34 307.823 135.551 305.789C136.761 303.755 139.018 302.213 142.32 301.163C145.622 300.113 148.924 299.948 152.226 300.67C155.528 301.392 158.06 302.738 159.821 304.706L173.029 320.456C174.79 322.425 175.066 324.427 173.855 326.461C172.644 328.495 170.388 330.038 167.086 331.088ZM175.011 409.641C171.708 410.691 168.351 410.888 164.939 410.231C161.527 409.575 158.94 408.263 157.179 406.294L143.971 390.544C142.21 388.575 141.935 386.573 143.145 384.539C144.356 382.505 146.613 380.963 149.915 379.913C153.217 378.863 156.574 378.698 159.986 379.42C163.398 380.142 165.985 381.488 167.746 383.456L180.954 399.206C182.715 401.175 182.991 403.144 181.78 405.113C180.569 407.081 178.313 408.591 175.011 409.641ZM236.429 409.641C233.127 410.691 229.77 410.888 226.358 410.231C222.946 409.575 220.359 408.263 218.598 406.294L172.369 351.169C170.608 349.2 170.333 347.198 171.543 345.164C172.754 343.13 175.011 341.588 178.313 340.538C181.615 339.488 184.972 339.323 188.384 340.045C191.796 340.767 194.383 342.113 196.144 344.081L242.373 399.206C244.134 401.175 244.409 403.144 243.199 405.113C241.988 407.081 239.731 408.591 236.429 409.641ZM256.902 362.588C253.6 363.638 250.243 363.802 246.831 363.08C243.419 362.358 240.832 361.013 239.071 359.044L199.446 311.794C197.685 309.825 197.41 307.823 198.62 305.789C199.831 303.755 202.088 302.213 205.39 301.163C208.692 300.113 212.049 299.948 215.461 300.67C218.873 301.392 221.46 302.738 223.221 304.706L262.846 351.956C264.607 353.925 264.882 355.927 263.671 357.961C262.461 359.995 260.204 361.538 256.902 362.588ZM296.527 409.838C293.225 410.888 289.868 411.052 286.456 410.33C283.044 409.608 280.457 408.263 278.696 406.294L258.883 382.669C257.122 380.7 256.847 378.698 258.058 376.664C259.269 374.63 261.525 373.088 264.827 372.038C268.129 370.988 271.486 370.823 274.899 371.545C278.311 372.267 280.897 373.613 282.658 375.581L302.471 399.206C304.232 401.175 304.507 403.177 303.296 405.211C302.086 407.245 299.829 408.788 296.527 409.838Z" fill="#606060"/>
<path d="M1541.17 666.629V789.371C1538.38 786.939 1535.76 784.364 1533.3 781.646C1530.84 778.928 1528.55 776.138 1526.42 773.277V682.723C1528.55 679.862 1530.84 677.072 1533.3 674.354C1535.76 671.636 1538.38 669.061 1541.17 666.629ZM1580.5 646.029V809.971C1577.06 808.969 1573.7 807.861 1570.42 806.645C1567.14 805.429 1563.95 804.034 1560.83 802.46V653.54C1563.95 651.966 1567.14 650.571 1570.42 649.355C1573.7 648.139 1577.06 647.031 1580.5 646.029ZM1649.33 806.752V649.248C1666.71 655.972 1680.88 666.343 1691.86 680.362C1702.84 694.382 1708.33 710.261 1708.33 728C1708.33 745.739 1702.84 761.618 1691.86 775.637C1680.88 789.657 1666.71 800.028 1649.33 806.752ZM1610 813.833C1608.36 813.833 1606.72 813.798 1605.08 813.726C1603.44 813.655 1601.81 813.547 1600.17 813.404V642.596C1601.81 642.453 1603.44 642.345 1605.08 642.274C1606.72 642.202 1608.36 642.167 1610 642.167C1613.28 642.167 1616.56 642.31 1619.83 642.596C1623.11 642.882 1626.39 643.311 1629.67 643.883V812.117C1626.39 812.689 1623.11 813.118 1619.83 813.404C1616.56 813.69 1613.28 813.833 1610 813.833Z" fill="url(#paint11_linear_373_89)" fill-opacity="0.12"/>
</g>
<defs>
<linearGradient id="paint0_linear_373_89" x1="351.812" y1="392" x2="351.812" y2="1039.57" gradientUnits="userSpaceOnUse">
<stop stop-color="#1A8CB0" stop-opacity="0.12"/>
<stop offset="1" stop-color="#EAFF6A" stop-opacity="0.15"/>
</linearGradient>
<linearGradient id="paint1_linear_373_89" x1="1129.22" y1="-113" x2="1129.22" y2="495.455" gradientUnits="userSpaceOnUse">
<stop stop-color="#EAFF6A" stop-opacity="0.1"/>
<stop offset="1" stop-color="#1A8CB0" stop-opacity="0.11"/>
</linearGradient>
<linearGradient id="paint2_linear_373_89" x1="1358.44" y1="716" x2="1358.44" y2="1319.3" gradientUnits="userSpaceOnUse">
<stop stop-color="#1A8CB0" stop-opacity="0.11"/>
<stop offset="1" stop-color="#EAFF6A" stop-opacity="0.21"/>
</linearGradient>
<linearGradient id="paint3_linear_373_89" x1="50.5" y1="745" x2="50.5" y2="896" gradientUnits="userSpaceOnUse">
<stop stop-color="#EAFF6A"/>
<stop offset="1" stop-color="#1A8CB0" stop-opacity="0.19"/>
</linearGradient>
<linearGradient id="paint4_linear_373_89" x1="292.5" y1="102" x2="292.5" y2="253" gradientUnits="userSpaceOnUse">
<stop stop-color="#EAFF6A"/>
<stop offset="1" stop-color="#1A8CB0" stop-opacity="0.19"/>
</linearGradient>
<linearGradient id="paint5_linear_373_89" x1="685" y1="578" x2="685" y2="618" gradientUnits="userSpaceOnUse">
<stop stop-color="#EAFF6A"/>
<stop offset="1" stop-color="#1A8CB0" stop-opacity="0.15"/>
</linearGradient>
<linearGradient id="paint6_linear_373_89" x1="1028" y1="616" x2="1028" y2="656" gradientUnits="userSpaceOnUse">
<stop stop-color="#EAFF6A"/>
<stop offset="1" stop-color="#1A8CB0" stop-opacity="0.15"/>
</linearGradient>
<linearGradient id="paint7_linear_373_89" x1="1578" y1="558" x2="1578" y2="598" gradientUnits="userSpaceOnUse">
<stop stop-color="#EAFF6A"/>
<stop offset="1" stop-color="#1A8CB0" stop-opacity="0.15"/>
</linearGradient>
<linearGradient id="paint8_linear_373_89" x1="609" y1="213" x2="609" y2="253" gradientUnits="userSpaceOnUse">
<stop stop-color="#EAFF6A"/>
<stop offset="1" stop-color="#1A8CB0" stop-opacity="0.15"/>
</linearGradient>
<linearGradient id="paint9_linear_373_89" x1="1578" y1="151" x2="1578" y2="355" gradientUnits="userSpaceOnUse">
<stop stop-color="#EAFF6A" stop-opacity="0.12"/>
<stop offset="1" stop-color="#1A8CB0" stop-opacity="0.11"/>
</linearGradient>
<linearGradient id="paint10_linear_373_89" x1="690.5" y1="234.365" x2="690.5" y2="355" gradientUnits="userSpaceOnUse">
<stop stop-color="#EAFF6A" stop-opacity="0.12"/>
<stop offset="1" stop-color="#1A8CB0" stop-opacity="0.11"/>
</linearGradient>
<linearGradient id="paint11_linear_373_89" x1="1617.38" y1="642.167" x2="1617.38" y2="813.833" gradientUnits="userSpaceOnUse">
<stop stop-color="#1A8CB0" stop-opacity="0.11"/>
<stop offset="1" stop-color="#EAFF6A"/>
</linearGradient>
<clipPath id="clip0_373_89">
<rect width="1728" height="1117" fill="white"/>
</clipPath>
</defs>
</svg>
