<svg width="1728" height="1117" viewBox="0 0 1728 1117" fill="none" xmlns="http://www.w3.org/2000/svg">
<g clip-path="url(#clip0_373_89)">
<rect width="1728" height="1117" fill="#212121"/>
<mask id="mask0_373_89" style="mask-type:luminance" maskUnits="userSpaceOnUse" x="0" y="0" width="1728" height="1117">
<path d="M1728 0H0V1117H1728V0Z" fill="white"/>
</mask>
<g mask="url(#mask0_373_89)">
<mask id="mask1_373_89" style="mask-type:luminance" maskUnits="userSpaceOnUse" x="0" y="0" width="1728" height="1117">
<path d="M1728 0H0V1117H1728V0Z" fill="white"/>
</mask>
<g mask="url(#mask1_373_89)">
<path d="M1728 0H0V1117H1728V0Z" fill="#212121"/>
<path fill-rule="evenodd" clip-rule="evenodd" d="M363.542 392.841C436.886 403.751 448.629 507.887 498.324 562.921C533.705 602.103 587.288 621.014 611.8 667.769C639.47 720.546 667.819 785.03 643.229 839.31C618.751 893.342 543.791 895.762 493.947 927.921C448.151 957.469 416.288 1006.05 363.542 1019.76C300.268 1036.22 218.222 1058.16 172.385 1011.54C125.018 963.366 182.623 878.252 161.351 814.129C139.835 749.27 43.5034 714.904 51.4665 647.034C59.185 581.249 144.743 559.8 196.099 517.969C251.478 472.862 292.894 382.334 363.542 392.841Z" fill="url(#paint0_linear_373_89)"/>
<path fill-rule="evenodd" clip-rule="evenodd" d="M1126.12 -107.666C1191.64 -88.4578 1201.5 1.1479 1250.43 48.7717C1288.61 85.9386 1354.52 90.2573 1378.38 137.9C1403.39 187.842 1396.3 248.97 1376.92 301.357C1358.03 352.418 1320.93 396.121 1273.2 422.3C1228.85 446.62 1175.9 429.974 1126.12 438.906C1060.14 450.745 987.754 524.286 934.947 482.99C881.399 441.115 941.804 350.771 928.238 284.161C917.145 229.695 862.951 190.278 864.015 134.704C865.272 69.1222 886.362 0.688721 934.521 -43.8446C985.184 -90.6936 1059.9 -127.08 1126.12 -107.666Z" fill="url(#paint1_linear_373_89)"/>
<path fill-rule="evenodd" clip-rule="evenodd" d="M1356.27 716.632C1415.84 722.05 1458.08 774.641 1504.1 812.847C1543.62 845.654 1577.3 882.185 1606.54 924.407C1637.97 969.779 1671.89 1014.54 1681.46 1068.9C1691.94 1128.4 1698.78 1197.28 1663.21 1246.11C1627.62 1294.98 1559.82 1308.91 1500.05 1317.93C1451.09 1325.33 1405.1 1300.71 1356.27 1292.46C1316.24 1285.7 1277.81 1281.85 1238.05 1273.67C1180.93 1261.92 1112.17 1274.81 1070.78 1233.73C1030.02 1193.26 1019.61 1125.04 1031.77 1068.9C1043.55 1014.51 1106.92 989.197 1134.24 940.713C1161.98 891.495 1152.29 824.597 1192.05 784.466C1234.46 741.665 1296.27 711.175 1356.27 716.632Z" fill="url(#paint2_linear_373_89)"/>
</g>
<path d="M1605.5 807C1652.17 807 1690 773.197 1690 731.5C1690 689.803 1652.17 656 1605.5 656C1558.83 656 1521 689.803 1521 731.5C1521 773.197 1558.83 807 1605.5 807Z" fill="#212121"/>
<path d="M50.5 896C97.1681 896 135 862.197 135 820.5C135 778.803 97.1681 745 50.5 745C3.83194 745 -34 778.803 -34 820.5C-34 862.197 3.83194 896 50.5 896Z" fill="#212121"/>
<path d="M123.5 820.5C123.5 854.663 92.0688 884.5 50.5 884.5C8.93116 884.5 -22.5 854.663 -22.5 820.5C-22.5 786.337 8.93116 756.5 50.5 756.5C92.0688 756.5 123.5 786.337 123.5 820.5Z" stroke="url(#paint3_linear_373_89)" stroke-opacity="0.13" stroke-width="23"/>
<path d="M292.5 253C339.168 253 377 219.197 377 177.5C377 135.803 339.168 102 292.5 102C245.832 102 208 135.803 208 177.5C208 219.197 245.832 253 292.5 253Z" fill="#212121"/>
<path d="M365.5 177.5C365.5 211.663 334.069 241.5 292.5 241.5C250.931 241.5 219.5 211.663 219.5 177.5C219.5 143.337 250.931 113.5 292.5 113.5C334.069 113.5 365.5 143.337 365.5 177.5Z" stroke="url(#paint4_linear_373_89)" stroke-opacity="0.13" stroke-width="23"/>
<path d="M685 618C695.493 618 704 609.046 704 598C704 586.954 695.493 578 685 578C674.507 578 666 586.954 666 598C666 609.046 674.507 618 685 618Z" fill="url(#paint5_linear_373_89)" fill-opacity="0.13"/>
<path d="M1028 656C1038.49 656 1047 647.046 1047 636C1047 624.954 1038.49 616 1028 616C1017.51 616 1009 624.954 1009 636C1009 647.046 1017.51 656 1028 656Z" fill="url(#paint6_linear_373_89)" fill-opacity="0.13"/>
<path d="M1578 598C1588.49 598 1597 589.046 1597 578C1597 566.954 1588.49 558 1578 558C1567.51 558 1559 566.954 1559 578C1559 589.046 1567.51 598 1578 598Z" fill="url(#paint7_linear_373_89)" fill-opacity="0.13"/>
<path d="M609 253C619.493 253 628 244.046 628 233C628 221.954 619.493 213 609 213C598.507 213 590 221.954 590 233C590 244.046 598.507 253 609 253Z" fill="url(#paint8_linear_373_89)" fill-opacity="0.13"/>
<path d="M1578 355C1634.33 355 1680 309.333 1680 253C1680 196.667 1634.33 151 1578 151C1521.67 151 1476 196.667 1476 253C1476 309.333 1521.67 355 1578 355Z" fill="url(#paint9_linear_373_89)"/>
<path d="M1643 232C1663.43 232 1680 212.972 1680 189.5C1680 166.028 1663.43 147 1643 147C1622.57 147 1606 166.028 1606 189.5C1606 212.972 1622.57 232 1643 232Z" fill="#212121"/>
<path d="M690.5 355C725.018 355 753 327.995 753 294.683C753 261.371 725.018 234.366 690.5 234.366C655.982 234.366 628 261.371 628 294.683C628 327.995 655.982 355 690.5 355Z" fill="url(#paint10_linear_373_89)"/>
<path d="M730.328 282.264C742.849 282.264 752.999 271.012 752.999 257.132C752.999 243.252 742.849 232 730.328 232C717.807 232 707.656 243.252 707.656 257.132C707.656 271.012 717.807 282.264 730.328 282.264Z" fill="#212121"/>
</g>
<path d="M1541.17 666.629V789.371C1538.38 786.939 1535.76 784.364 1533.3 781.646C1530.84 778.928 1528.55 776.138 1526.42 773.277V682.723C1528.55 679.862 1530.84 677.072 1533.3 674.354C1535.76 671.636 1538.38 669.061 1541.17 666.629ZM1580.5 646.029V809.971C1577.06 808.969 1573.7 807.861 1570.42 806.645C1567.14 805.429 1563.95 804.034 1560.83 802.46V653.54C1563.95 651.966 1567.14 650.571 1570.42 649.355C1573.7 648.139 1577.06 647.031 1580.5 646.029ZM1649.33 806.752V649.248C1666.71 655.972 1680.88 666.343 1691.86 680.362C1702.84 694.382 1708.33 710.261 1708.33 728C1708.33 745.739 1702.84 761.618 1691.86 775.637C1680.88 789.657 1666.71 800.028 1649.33 806.752ZM1610 813.833C1608.36 813.833 1606.72 813.798 1605.08 813.726C1603.44 813.655 1601.81 813.547 1600.17 813.404V642.596C1601.81 642.453 1603.44 642.345 1605.08 642.274C1606.72 642.202 1608.36 642.167 1610 642.167C1613.28 642.167 1616.56 642.31 1619.83 642.596C1623.11 642.882 1626.39 643.311 1629.67 643.883V812.117C1626.39 812.689 1623.11 813.118 1619.83 813.404C1616.56 813.69 1613.28 813.833 1610 813.833Z" fill="url(#paint11_linear_373_89)" fill-opacity="0.12"/>
<path d="M746.375 831.083C745.203 831.083 744.177 830.742 743.298 830.058C742.419 829.375 741.979 828.578 741.979 827.667C741.979 826.756 742.419 825.958 743.298 825.275C744.177 824.592 745.203 824.25 746.375 824.25C747.548 824.25 748.573 824.592 749.452 825.275C750.332 825.958 750.771 826.756 750.771 827.667C750.771 828.578 750.332 829.375 749.452 830.058C748.573 830.742 747.548 831.083 746.375 831.083ZM746.375 803.75C745.203 803.75 744.177 803.408 743.298 802.725C742.419 802.042 741.979 801.244 741.979 800.333C741.979 799.422 742.419 798.625 743.298 797.942C744.177 797.258 745.203 796.917 746.375 796.917C747.548 796.917 748.573 797.258 749.452 797.942C750.332 798.625 750.771 799.422 750.771 800.333C750.771 801.244 750.332 802.042 749.452 802.725C748.573 803.408 747.548 803.75 746.375 803.75ZM772.75 861.833C770.259 861.833 768.171 861.178 766.486 859.869C764.801 858.559 763.959 856.936 763.959 855C763.959 853.064 764.801 851.441 766.486 850.131C768.171 848.822 770.259 848.167 772.75 848.167C775.241 848.167 777.329 848.822 779.014 850.131C780.699 851.441 781.542 853.064 781.542 855C781.542 856.936 780.699 858.559 779.014 859.869C777.329 861.178 775.241 861.833 772.75 861.833ZM772.75 834.5C770.259 834.5 768.171 833.845 766.486 832.535C764.801 831.226 763.959 829.603 763.959 827.667C763.959 825.731 764.801 824.108 766.486 822.798C768.171 821.488 770.259 820.833 772.75 820.833C775.241 820.833 777.329 821.488 779.014 822.798C780.699 824.108 781.542 825.731 781.542 827.667C781.542 829.603 780.699 831.226 779.014 832.535C777.329 833.845 775.241 834.5 772.75 834.5ZM772.75 807.167C770.259 807.167 768.171 806.512 766.486 805.202C764.801 803.892 763.959 802.269 763.959 800.333C763.959 798.397 764.801 796.774 766.486 795.465C768.171 794.155 770.259 793.5 772.75 793.5C775.241 793.5 777.329 794.155 779.014 795.465C780.699 796.774 781.542 798.397 781.542 800.333C781.542 802.269 780.699 803.892 779.014 805.202C777.329 806.512 775.241 807.167 772.75 807.167ZM772.75 779.833C770.259 779.833 768.171 779.178 766.486 777.869C764.801 776.559 763.959 774.936 763.959 773C763.959 771.064 764.801 769.441 766.486 768.131C768.171 766.822 770.259 766.167 772.75 766.167C775.241 766.167 777.329 766.822 779.014 768.131C780.699 769.441 781.542 771.064 781.542 773C781.542 774.936 780.699 776.559 779.014 777.869C777.329 779.178 775.241 779.833 772.75 779.833ZM807.917 837.917C804.254 837.917 801.14 836.92 798.576 834.927C796.012 832.934 794.729 830.514 794.729 827.667C794.729 824.819 796.012 822.399 798.576 820.406C801.14 818.413 804.254 817.417 807.917 817.417C811.58 817.417 814.694 818.413 817.258 820.406C819.822 822.399 821.104 824.819 821.104 827.667C821.104 830.514 819.822 832.934 817.258 834.927C814.694 836.92 811.58 837.917 807.917 837.917ZM807.917 810.583C804.254 810.583 801.14 809.587 798.576 807.594C796.012 805.601 794.729 803.181 794.729 800.333C794.729 797.486 796.012 795.066 798.576 793.073C801.14 791.08 804.254 790.083 807.917 790.083C811.58 790.083 814.694 791.08 817.258 793.073C819.822 795.066 821.104 797.486 821.104 800.333C821.104 803.181 819.822 805.601 817.258 807.594C814.694 809.587 811.58 810.583 807.917 810.583ZM807.917 861.833C805.426 861.833 803.338 861.178 801.653 859.869C799.968 858.559 799.125 856.936 799.125 855C799.125 853.064 799.968 851.441 801.653 850.131C803.338 848.822 805.426 848.167 807.917 848.167C810.408 848.167 812.496 848.822 814.181 850.131C815.866 851.441 816.709 853.064 816.709 855C816.709 856.936 815.866 858.559 814.181 859.869C812.496 861.178 810.408 861.833 807.917 861.833ZM807.917 779.833C805.426 779.833 803.338 779.178 801.653 777.869C799.968 776.559 799.125 774.936 799.125 773C799.125 771.064 799.968 769.441 801.653 768.131C803.338 766.822 805.426 766.167 807.917 766.167C810.408 766.167 812.496 766.822 814.181 768.131C815.866 769.441 816.709 771.064 816.709 773C816.709 774.936 815.866 776.559 814.181 777.869C812.496 779.178 810.408 779.833 807.917 779.833ZM807.917 878.917C806.745 878.917 805.719 878.575 804.84 877.892C803.961 877.208 803.521 876.411 803.521 875.5C803.521 874.589 803.961 873.792 804.84 873.108C805.719 872.425 806.745 872.083 807.917 872.083C809.089 872.083 810.115 872.425 810.994 873.108C811.873 873.792 812.313 874.589 812.313 875.5C812.313 876.411 811.873 877.208 810.994 877.892C810.115 878.575 809.089 878.917 807.917 878.917ZM807.917 755.917C806.745 755.917 805.719 755.575 804.84 754.892C803.961 754.208 803.521 753.411 803.521 752.5C803.521 751.589 803.961 750.792 804.84 750.108C805.719 749.425 806.745 749.083 807.917 749.083C809.089 749.083 810.115 749.425 810.994 750.108C811.873 750.792 812.313 751.589 812.313 752.5C812.313 753.411 811.873 754.208 810.994 754.892C810.115 755.575 809.089 755.917 807.917 755.917ZM843.084 837.917C839.42 837.917 836.307 836.92 833.743 834.927C831.178 832.934 829.896 830.514 829.896 827.667C829.896 824.819 831.178 822.399 833.743 820.406C836.307 818.413 839.42 817.417 843.084 817.417C846.747 817.417 849.861 818.413 852.425 820.406C854.989 822.399 856.271 824.819 856.271 827.667C856.271 830.514 854.989 832.934 852.425 834.927C849.861 836.92 846.747 837.917 843.084 837.917ZM843.084 810.583C839.42 810.583 836.307 809.587 833.743 807.594C831.178 805.601 829.896 803.181 829.896 800.333C829.896 797.486 831.178 795.066 833.743 793.073C836.307 791.08 839.42 790.083 843.084 790.083C846.747 790.083 849.861 791.08 852.425 793.073C854.989 795.066 856.271 797.486 856.271 800.333C856.271 803.181 854.989 805.601 852.425 807.594C849.861 809.587 846.747 810.583 843.084 810.583ZM843.084 861.833C840.593 861.833 838.505 861.178 836.82 859.869C835.135 858.559 834.292 856.936 834.292 855C834.292 853.064 835.135 851.441 836.82 850.131C838.505 848.822 840.593 848.167 843.084 848.167C845.575 848.167 847.663 848.822 849.348 850.131C851.033 851.441 851.875 853.064 851.875 855C851.875 856.936 851.033 858.559 849.348 859.869C847.663 861.178 845.575 861.833 843.084 861.833ZM843.084 779.833C840.593 779.833 838.505 779.178 836.82 777.869C835.135 776.559 834.292 774.936 834.292 773C834.292 771.064 835.135 769.441 836.82 768.131C838.505 766.822 840.593 766.167 843.084 766.167C845.575 766.167 847.663 766.822 849.348 768.131C851.033 769.441 851.875 771.064 851.875 773C851.875 774.936 851.033 776.559 849.348 777.869C847.663 779.178 845.575 779.833 843.084 779.833ZM843.084 878.917C841.911 878.917 840.886 878.575 840.007 877.892C839.127 877.208 838.688 876.411 838.688 875.5C838.688 874.589 839.127 873.792 840.007 873.108C840.886 872.425 841.911 872.083 843.084 872.083C844.256 872.083 845.282 872.425 846.161 873.108C847.04 873.792 847.479 874.589 847.479 875.5C847.479 876.411 847.04 877.208 846.161 877.892C845.282 878.575 844.256 878.917 843.084 878.917ZM843.084 755.917C841.911 755.917 840.886 755.575 840.007 754.892C839.127 754.208 838.688 753.411 838.688 752.5C838.688 751.589 839.127 750.792 840.007 750.108C840.886 749.425 841.911 749.083 843.084 749.083C844.256 749.083 845.282 749.425 846.161 750.108C847.04 750.792 847.479 751.589 847.479 752.5C847.479 753.411 847.04 754.208 846.161 754.892C845.282 755.575 844.256 755.917 843.084 755.917ZM878.25 861.833C875.759 861.833 873.671 861.178 871.986 859.869C870.301 858.559 869.459 856.936 869.459 855C869.459 853.064 870.301 851.441 871.986 850.131C873.671 848.822 875.759 848.167 878.25 848.167C880.741 848.167 882.829 848.822 884.514 850.131C886.199 851.441 887.042 853.064 887.042 855C887.042 856.936 886.199 858.559 884.514 859.869C882.829 861.178 880.741 861.833 878.25 861.833ZM878.25 834.5C875.759 834.5 873.671 833.845 871.986 832.535C870.301 831.226 869.459 829.603 869.459 827.667C869.459 825.731 870.301 824.108 871.986 822.798C873.671 821.488 875.759 820.833 878.25 820.833C880.741 820.833 882.829 821.488 884.514 822.798C886.199 824.108 887.042 825.731 887.042 827.667C887.042 829.603 886.199 831.226 884.514 832.535C882.829 833.845 880.741 834.5 878.25 834.5ZM878.25 807.167C875.759 807.167 873.671 806.512 871.986 805.202C870.301 803.892 869.459 802.269 869.459 800.333C869.459 798.397 870.301 796.774 871.986 795.465C873.671 794.155 875.759 793.5 878.25 793.5C880.741 793.5 882.829 794.155 884.514 795.465C886.199 796.774 887.042 798.397 887.042 800.333C887.042 802.269 886.199 803.892 884.514 805.202C882.829 806.512 880.741 807.167 878.25 807.167ZM878.25 779.833C875.759 779.833 873.671 779.178 871.986 777.869C870.301 776.559 869.459 774.936 869.459 773C869.459 771.064 870.301 769.441 871.986 768.131C873.671 766.822 875.759 766.167 878.25 766.167C880.741 766.167 882.829 766.822 884.514 768.131C886.199 769.441 887.042 771.064 887.042 773C887.042 774.936 886.199 776.559 884.514 777.869C882.829 779.178 880.741 779.833 878.25 779.833ZM904.625 831.083C903.453 831.083 902.427 830.742 901.548 830.058C900.669 829.375 900.23 828.578 900.23 827.667C900.23 826.756 900.669 825.958 901.548 825.275C902.427 824.592 903.453 824.25 904.625 824.25C905.798 824.25 906.823 824.592 907.702 825.275C908.582 825.958 909.021 826.756 909.021 827.667C909.021 828.578 908.582 829.375 907.702 830.058C906.823 830.742 905.798 831.083 904.625 831.083ZM904.625 803.75C903.453 803.75 902.427 803.408 901.548 802.725C900.669 802.042 900.23 801.244 900.23 800.333C900.23 799.422 900.669 798.625 901.548 797.942C902.427 797.258 903.453 796.917 904.625 796.917C905.798 796.917 906.823 797.258 907.702 797.942C908.582 798.625 909.021 799.422 909.021 800.333C909.021 801.244 908.582 802.042 907.702 802.725C906.823 803.408 905.798 803.75 904.625 803.75Z" fill="#626262"/>
</g>
<defs>
<linearGradient id="paint0_linear_373_89" x1="351.812" y1="392" x2="351.812" y2="1039.57" gradientUnits="userSpaceOnUse">
<stop stop-color="#1A8CB0" stop-opacity="0.12"/>
<stop offset="1" stop-color="#EAFF6A" stop-opacity="0.15"/>
</linearGradient>
<linearGradient id="paint1_linear_373_89" x1="1129.22" y1="-113" x2="1129.22" y2="495.455" gradientUnits="userSpaceOnUse">
<stop stop-color="#EAFF6A" stop-opacity="0.1"/>
<stop offset="1" stop-color="#1A8CB0" stop-opacity="0.11"/>
</linearGradient>
<linearGradient id="paint2_linear_373_89" x1="1358.44" y1="716" x2="1358.44" y2="1319.3" gradientUnits="userSpaceOnUse">
<stop stop-color="#1A8CB0" stop-opacity="0.11"/>
<stop offset="1" stop-color="#EAFF6A" stop-opacity="0.21"/>
</linearGradient>
<linearGradient id="paint3_linear_373_89" x1="50.5" y1="745" x2="50.5" y2="896" gradientUnits="userSpaceOnUse">
<stop stop-color="#EAFF6A"/>
<stop offset="1" stop-color="#1A8CB0" stop-opacity="0.19"/>
</linearGradient>
<linearGradient id="paint4_linear_373_89" x1="292.5" y1="102" x2="292.5" y2="253" gradientUnits="userSpaceOnUse">
<stop stop-color="#EAFF6A"/>
<stop offset="1" stop-color="#1A8CB0" stop-opacity="0.19"/>
</linearGradient>
<linearGradient id="paint5_linear_373_89" x1="685" y1="578" x2="685" y2="618" gradientUnits="userSpaceOnUse">
<stop stop-color="#EAFF6A"/>
<stop offset="1" stop-color="#1A8CB0" stop-opacity="0.15"/>
</linearGradient>
<linearGradient id="paint6_linear_373_89" x1="1028" y1="616" x2="1028" y2="656" gradientUnits="userSpaceOnUse">
<stop stop-color="#EAFF6A"/>
<stop offset="1" stop-color="#1A8CB0" stop-opacity="0.15"/>
</linearGradient>
<linearGradient id="paint7_linear_373_89" x1="1578" y1="558" x2="1578" y2="598" gradientUnits="userSpaceOnUse">
<stop stop-color="#EAFF6A"/>
<stop offset="1" stop-color="#1A8CB0" stop-opacity="0.15"/>
</linearGradient>
<linearGradient id="paint8_linear_373_89" x1="609" y1="213" x2="609" y2="253" gradientUnits="userSpaceOnUse">
<stop stop-color="#EAFF6A"/>
<stop offset="1" stop-color="#1A8CB0" stop-opacity="0.15"/>
</linearGradient>
<linearGradient id="paint9_linear_373_89" x1="1578" y1="151" x2="1578" y2="355" gradientUnits="userSpaceOnUse">
<stop stop-color="#EAFF6A" stop-opacity="0.12"/>
<stop offset="1" stop-color="#1A8CB0" stop-opacity="0.11"/>
</linearGradient>
<linearGradient id="paint10_linear_373_89" x1="690.5" y1="234.365" x2="690.5" y2="355" gradientUnits="userSpaceOnUse">
<stop stop-color="#EAFF6A" stop-opacity="0.12"/>
<stop offset="1" stop-color="#1A8CB0" stop-opacity="0.11"/>
</linearGradient>
<linearGradient id="paint11_linear_373_89" x1="1617.38" y1="642.167" x2="1617.38" y2="813.833" gradientUnits="userSpaceOnUse">
<stop stop-color="#1A8CB0" stop-opacity="0.11"/>
<stop offset="1" stop-color="#EAFF6A"/>
</linearGradient>
<clipPath id="clip0_373_89">
<rect width="1728" height="1117" fill="white"/>
</clipPath>
</defs>
</svg>
