<svg width="1728" height="1117" viewBox="0 0 1728 1117" fill="none" xmlns="http://www.w3.org/2000/svg">
<g clip-path="url(#clip0_373_163)">
<rect width="1728" height="1117" fill="#212121"/>
<mask id="mask0_373_163" style="mask-type:luminance" maskUnits="userSpaceOnUse" x="0" y="0" width="1728" height="1117">
<path d="M1728 0H0V1117H1728V0Z" fill="white"/>
</mask>
<g mask="url(#mask0_373_163)">
<path d="M1728 0H0V1117H1728V0Z" fill="#212121"/>
<path fill-rule="evenodd" clip-rule="evenodd" d="M215.542 615.841C288.886 626.751 300.629 730.887 350.324 785.921C385.705 825.103 439.288 844.014 463.8 890.769C491.47 943.546 519.819 1008.03 495.229 1062.31C470.751 1116.34 395.791 1118.76 345.947 1150.92C300.151 1180.47 268.288 1229.05 215.542 1242.76C152.268 1259.22 70.2216 1281.16 24.3845 1234.54C-22.9819 1186.37 34.6227 1101.25 13.351 1037.13C-8.16495 972.27 -104.497 937.904 -96.5335 870.034C-88.815 804.249 -3.25677 782.8 48.0993 740.969C103.478 695.862 144.894 605.334 215.542 615.841Z" fill="url(#paint0_linear_373_163)"/>
<path fill-rule="evenodd" clip-rule="evenodd" d="M1250.52 -71.0685C1332.38 -63.0849 1390.44 14.4105 1453.68 70.7107C1507.99 119.054 1554.27 172.884 1594.47 235.1C1637.66 301.96 1684.27 367.922 1697.43 448.021C1711.83 535.693 1721.23 637.201 1672.35 709.155C1623.43 781.157 1530.26 801.684 1448.11 814.985C1380.83 825.88 1317.62 789.611 1250.52 777.457C1195.51 767.493 1142.69 761.82 1088.04 749.765C1009.54 732.449 915.043 751.448 858.166 690.907C802.144 631.276 787.848 530.743 804.558 448.021C820.748 367.873 907.838 330.574 945.386 259.129C983.502 186.602 970.184 88.0251 1024.83 28.8883C1083.11 -34.1809 1168.05 -79.1105 1250.52 -71.0685Z" fill="url(#paint1_linear_373_163)"/>
<path d="M85 108C95.4934 108 104 99.0457 104 88C104 76.9543 95.4934 68 85 68C74.5066 68 66 76.9543 66 88C66 99.0457 74.5066 108 85 108Z" fill="url(#paint2_linear_373_163)" fill-opacity="0.13"/>
<path d="M358 325C368.493 325 377 316.046 377 305C377 293.954 368.493 285 358 285C347.507 285 339 293.954 339 305C339 316.046 347.507 325 358 325Z" fill="url(#paint3_linear_373_163)" fill-opacity="0.13"/>
<path d="M1633 73C1643.49 73 1652 64.0457 1652 53C1652 41.9543 1643.49 33 1633 33C1622.51 33 1614 41.9543 1614 53C1614 64.0457 1622.51 73 1633 73Z" fill="url(#paint4_linear_373_163)" fill-opacity="0.13"/>
<path d="M661 169C661 203.163 629.569 233 588 233C546.431 233 515 203.163 515 169C515 134.837 546.431 105 588 105C629.569 105 661 134.837 661 169Z" stroke="url(#paint5_linear_373_163)" stroke-opacity="0.13" stroke-width="23"/>
<path d="M1181 985C1181 1019.16 1149.57 1049 1108 1049C1066.43 1049 1035 1019.16 1035 985C1035 950.837 1066.43 921 1108 921C1149.57 921 1181 950.837 1181 985Z" stroke="url(#paint6_linear_373_163)" stroke-opacity="0.13" stroke-width="23"/>
</g>
<path d="M634.167 732.629V855.371C631.381 852.939 628.759 850.364 626.3 847.646C623.842 844.928 621.548 842.138 619.417 839.277V748.723C621.548 745.862 623.842 743.072 626.3 740.354C628.759 737.636 631.381 735.061 634.167 732.629ZM673.5 712.029V875.971C670.059 874.969 666.699 873.861 663.421 872.645C660.143 871.429 656.948 870.034 653.834 868.46V719.54C656.948 717.966 660.143 716.571 663.421 715.355C666.699 714.139 670.059 713.031 673.5 712.029ZM742.334 872.752V715.248C759.706 721.971 773.882 732.343 784.863 746.362C795.843 760.382 801.334 776.261 801.334 794C801.334 811.739 795.843 827.618 784.863 841.637C773.882 855.657 759.706 866.028 742.334 872.752ZM703 879.833C701.361 879.833 699.723 879.798 698.084 879.726C696.445 879.654 694.806 879.547 693.167 879.404V708.596C694.806 708.453 696.445 708.345 698.084 708.274C699.723 708.202 701.361 708.167 703 708.167C706.278 708.167 709.556 708.31 712.834 708.596C716.111 708.882 719.389 709.311 722.667 709.883V878.117C719.389 878.689 716.111 879.118 712.834 879.404C709.556 879.69 706.278 879.833 703 879.833Z" fill="url(#paint7_linear_373_163)" fill-opacity="0.12"/>
<path d="M1401.38 1052.08C1400.2 1052.08 1399.18 1051.74 1398.3 1051.06C1397.42 1050.37 1396.98 1049.58 1396.98 1048.67C1396.98 1047.76 1397.42 1046.96 1398.3 1046.27C1399.18 1045.59 1400.2 1045.25 1401.38 1045.25C1402.55 1045.25 1403.57 1045.59 1404.45 1046.27C1405.33 1046.96 1405.77 1047.76 1405.77 1048.67C1405.77 1049.58 1405.33 1050.37 1404.45 1051.06C1403.57 1051.74 1402.55 1052.08 1401.38 1052.08ZM1401.38 1024.75C1400.2 1024.75 1399.18 1024.41 1398.3 1023.72C1397.42 1023.04 1396.98 1022.24 1396.98 1021.33C1396.98 1020.42 1397.42 1019.62 1398.3 1018.94C1399.18 1018.26 1400.2 1017.92 1401.38 1017.92C1402.55 1017.92 1403.57 1018.26 1404.45 1018.94C1405.33 1019.62 1405.77 1020.42 1405.77 1021.33C1405.77 1022.24 1405.33 1023.04 1404.45 1023.72C1403.57 1024.41 1402.55 1024.75 1401.38 1024.75ZM1427.75 1082.83C1425.26 1082.83 1423.17 1082.18 1421.49 1080.87C1419.8 1079.56 1418.96 1077.94 1418.96 1076C1418.96 1074.06 1419.8 1072.44 1421.49 1071.13C1423.17 1069.82 1425.26 1069.17 1427.75 1069.17C1430.24 1069.17 1432.33 1069.82 1434.01 1071.13C1435.7 1072.44 1436.54 1074.06 1436.54 1076C1436.54 1077.94 1435.7 1079.56 1434.01 1080.87C1432.33 1082.18 1430.24 1082.83 1427.75 1082.83ZM1427.75 1055.5C1425.26 1055.5 1423.17 1054.85 1421.49 1053.54C1419.8 1052.23 1418.96 1050.6 1418.96 1048.67C1418.96 1046.73 1419.8 1045.11 1421.49 1043.8C1423.17 1042.49 1425.26 1041.83 1427.75 1041.83C1430.24 1041.83 1432.33 1042.49 1434.01 1043.8C1435.7 1045.11 1436.54 1046.73 1436.54 1048.67C1436.54 1050.6 1435.7 1052.23 1434.01 1053.54C1432.33 1054.85 1430.24 1055.5 1427.75 1055.5ZM1427.75 1028.17C1425.26 1028.17 1423.17 1027.51 1421.49 1026.2C1419.8 1024.89 1418.96 1023.27 1418.96 1021.33C1418.96 1019.4 1419.8 1017.77 1421.49 1016.46C1423.17 1015.15 1425.26 1014.5 1427.75 1014.5C1430.24 1014.5 1432.33 1015.15 1434.01 1016.46C1435.7 1017.77 1436.54 1019.4 1436.54 1021.33C1436.54 1023.27 1435.7 1024.89 1434.01 1026.2C1432.33 1027.51 1430.24 1028.17 1427.75 1028.17ZM1427.75 1000.83C1425.26 1000.83 1423.17 1000.18 1421.49 998.869C1419.8 997.559 1418.96 995.936 1418.96 994C1418.96 992.064 1419.8 990.441 1421.49 989.131C1423.17 987.822 1425.26 987.167 1427.75 987.167C1430.24 987.167 1432.33 987.822 1434.01 989.131C1435.7 990.441 1436.54 992.064 1436.54 994C1436.54 995.936 1435.7 997.559 1434.01 998.869C1432.33 1000.18 1430.24 1000.83 1427.75 1000.83ZM1462.92 1058.92C1459.25 1058.92 1456.14 1057.92 1453.58 1055.93C1451.01 1053.93 1449.73 1051.51 1449.73 1048.67C1449.73 1045.82 1451.01 1043.4 1453.58 1041.41C1456.14 1039.41 1459.25 1038.42 1462.92 1038.42C1466.58 1038.42 1469.69 1039.41 1472.26 1041.41C1474.82 1043.4 1476.1 1045.82 1476.1 1048.67C1476.1 1051.51 1474.82 1053.93 1472.26 1055.93C1469.69 1057.92 1466.58 1058.92 1462.92 1058.92ZM1462.92 1031.58C1459.25 1031.58 1456.14 1030.59 1453.58 1028.59C1451.01 1026.6 1449.73 1024.18 1449.73 1021.33C1449.73 1018.49 1451.01 1016.07 1453.58 1014.07C1456.14 1012.08 1459.25 1011.08 1462.92 1011.08C1466.58 1011.08 1469.69 1012.08 1472.26 1014.07C1474.82 1016.07 1476.1 1018.49 1476.1 1021.33C1476.1 1024.18 1474.82 1026.6 1472.26 1028.59C1469.69 1030.59 1466.58 1031.58 1462.92 1031.58ZM1462.92 1082.83C1460.43 1082.83 1458.34 1082.18 1456.65 1080.87C1454.97 1079.56 1454.13 1077.94 1454.13 1076C1454.13 1074.06 1454.97 1072.44 1456.65 1071.13C1458.34 1069.82 1460.43 1069.17 1462.92 1069.17C1465.41 1069.17 1467.5 1069.82 1469.18 1071.13C1470.87 1072.44 1471.71 1074.06 1471.71 1076C1471.71 1077.94 1470.87 1079.56 1469.18 1080.87C1467.5 1082.18 1465.41 1082.83 1462.92 1082.83ZM1462.92 1000.83C1460.43 1000.83 1458.34 1000.18 1456.65 998.869C1454.97 997.559 1454.13 995.936 1454.13 994C1454.13 992.064 1454.97 990.441 1456.65 989.131C1458.34 987.822 1460.43 987.167 1462.92 987.167C1465.41 987.167 1467.5 987.822 1469.18 989.131C1470.87 990.441 1471.71 992.064 1471.71 994C1471.71 995.936 1470.87 997.559 1469.18 998.869C1467.5 1000.18 1465.41 1000.83 1462.92 1000.83ZM1462.92 1099.92C1461.74 1099.92 1460.72 1099.57 1459.84 1098.89C1458.96 1098.21 1458.52 1097.41 1458.52 1096.5C1458.52 1095.59 1458.96 1094.79 1459.84 1094.11C1460.72 1093.42 1461.74 1093.08 1462.92 1093.08C1464.09 1093.08 1465.11 1093.42 1465.99 1094.11C1466.87 1094.79 1467.31 1095.59 1467.31 1096.5C1467.31 1097.41 1466.87 1098.21 1465.99 1098.89C1465.11 1099.57 1464.09 1099.92 1462.92 1099.92ZM1462.92 976.917C1461.74 976.917 1460.72 976.575 1459.84 975.892C1458.96 975.208 1458.52 974.411 1458.52 973.5C1458.52 972.589 1458.96 971.792 1459.84 971.108C1460.72 970.425 1461.74 970.083 1462.92 970.083C1464.09 970.083 1465.11 970.425 1465.99 971.108C1466.87 971.792 1467.31 972.589 1467.31 973.5C1467.31 974.411 1466.87 975.208 1465.99 975.892C1465.11 976.575 1464.09 976.917 1462.92 976.917ZM1498.08 1058.92C1494.42 1058.92 1491.31 1057.92 1488.74 1055.93C1486.18 1053.93 1484.9 1051.51 1484.9 1048.67C1484.9 1045.82 1486.18 1043.4 1488.74 1041.41C1491.31 1039.41 1494.42 1038.42 1498.08 1038.42C1501.75 1038.42 1504.86 1039.41 1507.42 1041.41C1509.99 1043.4 1511.27 1045.82 1511.27 1048.67C1511.27 1051.51 1509.99 1053.93 1507.42 1055.93C1504.86 1057.92 1501.75 1058.92 1498.08 1058.92ZM1498.08 1031.58C1494.42 1031.58 1491.31 1030.59 1488.74 1028.59C1486.18 1026.6 1484.9 1024.18 1484.9 1021.33C1484.9 1018.49 1486.18 1016.07 1488.74 1014.07C1491.31 1012.08 1494.42 1011.08 1498.08 1011.08C1501.75 1011.08 1504.86 1012.08 1507.42 1014.07C1509.99 1016.07 1511.27 1018.49 1511.27 1021.33C1511.27 1024.18 1509.99 1026.6 1507.42 1028.59C1504.86 1030.59 1501.75 1031.58 1498.08 1031.58ZM1498.08 1082.83C1495.59 1082.83 1493.5 1082.18 1491.82 1080.87C1490.13 1079.56 1489.29 1077.94 1489.29 1076C1489.29 1074.06 1490.13 1072.44 1491.82 1071.13C1493.5 1069.82 1495.59 1069.17 1498.08 1069.17C1500.57 1069.17 1502.66 1069.82 1504.35 1071.13C1506.03 1072.44 1506.88 1074.06 1506.88 1076C1506.88 1077.94 1506.03 1079.56 1504.35 1080.87C1502.66 1082.18 1500.57 1082.83 1498.08 1082.83ZM1498.08 1000.83C1495.59 1000.83 1493.5 1000.18 1491.82 998.869C1490.13 997.559 1489.29 995.936 1489.29 994C1489.29 992.064 1490.13 990.441 1491.82 989.131C1493.5 987.822 1495.59 987.167 1498.08 987.167C1500.57 987.167 1502.66 987.822 1504.35 989.131C1506.03 990.441 1506.88 992.064 1506.88 994C1506.88 995.936 1506.03 997.559 1504.35 998.869C1502.66 1000.18 1500.57 1000.83 1498.08 1000.83ZM1498.08 1099.92C1496.91 1099.92 1495.89 1099.57 1495.01 1098.89C1494.13 1098.21 1493.69 1097.41 1493.69 1096.5C1493.69 1095.59 1494.13 1094.79 1495.01 1094.11C1495.89 1093.42 1496.91 1093.08 1498.08 1093.08C1499.26 1093.08 1500.28 1093.42 1501.16 1094.11C1502.04 1094.79 1502.48 1095.59 1502.48 1096.5C1502.48 1097.41 1502.04 1098.21 1501.16 1098.89C1500.28 1099.57 1499.26 1099.92 1498.08 1099.92ZM1498.08 976.917C1496.91 976.917 1495.89 976.575 1495.01 975.892C1494.13 975.208 1493.69 974.411 1493.69 973.5C1493.69 972.589 1494.13 971.792 1495.01 971.108C1495.89 970.425 1496.91 970.083 1498.08 970.083C1499.26 970.083 1500.28 970.425 1501.16 971.108C1502.04 971.792 1502.48 972.589 1502.48 973.5C1502.48 974.411 1502.04 975.208 1501.16 975.892C1500.28 976.575 1499.26 976.917 1498.08 976.917ZM1533.25 1082.83C1530.76 1082.83 1528.67 1082.18 1526.99 1080.87C1525.3 1079.56 1524.46 1077.94 1524.46 1076C1524.46 1074.06 1525.3 1072.44 1526.99 1071.13C1528.67 1069.82 1530.76 1069.17 1533.25 1069.17C1535.74 1069.17 1537.83 1069.82 1539.51 1071.13C1541.2 1072.44 1542.04 1074.06 1542.04 1076C1542.04 1077.94 1541.2 1079.56 1539.51 1080.87C1537.83 1082.18 1535.74 1082.83 1533.25 1082.83ZM1533.25 1055.5C1530.76 1055.5 1528.67 1054.85 1526.99 1053.54C1525.3 1052.23 1524.46 1050.6 1524.46 1048.67C1524.46 1046.73 1525.3 1045.11 1526.99 1043.8C1528.67 1042.49 1530.76 1041.83 1533.25 1041.83C1535.74 1041.83 1537.83 1042.49 1539.51 1043.8C1541.2 1045.11 1542.04 1046.73 1542.04 1048.67C1542.04 1050.6 1541.2 1052.23 1539.51 1053.54C1537.83 1054.85 1535.74 1055.5 1533.25 1055.5ZM1533.25 1028.17C1530.76 1028.17 1528.67 1027.51 1526.99 1026.2C1525.3 1024.89 1524.46 1023.27 1524.46 1021.33C1524.46 1019.4 1525.3 1017.77 1526.99 1016.46C1528.67 1015.15 1530.76 1014.5 1533.25 1014.5C1535.74 1014.5 1537.83 1015.15 1539.51 1016.46C1541.2 1017.77 1542.04 1019.4 1542.04 1021.33C1542.04 1023.27 1541.2 1024.89 1539.51 1026.2C1537.83 1027.51 1535.74 1028.17 1533.25 1028.17ZM1533.25 1000.83C1530.76 1000.83 1528.67 1000.18 1526.99 998.869C1525.3 997.559 1524.46 995.936 1524.46 994C1524.46 992.064 1525.3 990.441 1526.99 989.131C1528.67 987.822 1530.76 987.167 1533.25 987.167C1535.74 987.167 1537.83 987.822 1539.51 989.131C1541.2 990.441 1542.04 992.064 1542.04 994C1542.04 995.936 1541.2 997.559 1539.51 998.869C1537.83 1000.18 1535.74 1000.83 1533.25 1000.83ZM1559.63 1052.08C1558.45 1052.08 1557.43 1051.74 1556.55 1051.06C1555.67 1050.37 1555.23 1049.58 1555.23 1048.67C1555.23 1047.76 1555.67 1046.96 1556.55 1046.27C1557.43 1045.59 1558.45 1045.25 1559.63 1045.25C1560.8 1045.25 1561.82 1045.59 1562.7 1046.27C1563.58 1046.96 1564.02 1047.76 1564.02 1048.67C1564.02 1049.58 1563.58 1050.37 1562.7 1051.06C1561.82 1051.74 1560.8 1052.08 1559.63 1052.08ZM1559.63 1024.75C1558.45 1024.75 1557.43 1024.41 1556.55 1023.72C1555.67 1023.04 1555.23 1022.24 1555.23 1021.33C1555.23 1020.42 1555.67 1019.62 1556.55 1018.94C1557.43 1018.26 1558.45 1017.92 1559.63 1017.92C1560.8 1017.92 1561.82 1018.26 1562.7 1018.94C1563.58 1019.62 1564.02 1020.42 1564.02 1021.33C1564.02 1022.24 1563.58 1023.04 1562.7 1023.72C1561.82 1024.41 1560.8 1024.75 1559.63 1024.75Z" fill="#626262"/>
</g>
<defs>
<linearGradient id="paint0_linear_373_163" x1="203.812" y1="615" x2="203.812" y2="1262.57" gradientUnits="userSpaceOnUse">
<stop stop-color="#1A8CB0" stop-opacity="0.15"/>
<stop offset="1" stop-color="#EAFF6A" stop-opacity="0.13"/>
</linearGradient>
<linearGradient id="paint1_linear_373_163" x1="1253.5" y1="-72" x2="1253.5" y2="817" gradientUnits="userSpaceOnUse">
<stop stop-color="#1A8CB0" stop-opacity="0.12"/>
<stop offset="1" stop-color="#EAFF6A" stop-opacity="0.18"/>
</linearGradient>
<linearGradient id="paint2_linear_373_163" x1="85" y1="68" x2="85" y2="108" gradientUnits="userSpaceOnUse">
<stop stop-color="#EAFF6A"/>
<stop offset="1" stop-color="#1A8CB0" stop-opacity="0.15"/>
</linearGradient>
<linearGradient id="paint3_linear_373_163" x1="358" y1="285" x2="358" y2="325" gradientUnits="userSpaceOnUse">
<stop stop-color="#EAFF6A"/>
<stop offset="1" stop-color="#1A8CB0" stop-opacity="0.15"/>
</linearGradient>
<linearGradient id="paint4_linear_373_163" x1="1633" y1="33" x2="1633" y2="73" gradientUnits="userSpaceOnUse">
<stop stop-color="#EAFF6A"/>
<stop offset="1" stop-color="#1A8CB0" stop-opacity="0.15"/>
</linearGradient>
<linearGradient id="paint5_linear_373_163" x1="588" y1="93.5" x2="588" y2="244.5" gradientUnits="userSpaceOnUse">
<stop stop-color="#EAFF6A"/>
<stop offset="1" stop-color="#1A8CB0" stop-opacity="0.14"/>
</linearGradient>
<linearGradient id="paint6_linear_373_163" x1="1108" y1="909.5" x2="1108" y2="1060.5" gradientUnits="userSpaceOnUse">
<stop stop-color="#EAFF6A"/>
<stop offset="1" stop-color="#1A8CB0" stop-opacity="0.14"/>
</linearGradient>
<linearGradient id="paint7_linear_373_163" x1="710.375" y1="708.167" x2="710.375" y2="879.833" gradientUnits="userSpaceOnUse">
<stop stop-color="#1A8CB0" stop-opacity="0.11"/>
<stop offset="1" stop-color="#EAFF6A"/>
</linearGradient>
<clipPath id="clip0_373_163">
<rect width="1728" height="1117" fill="white"/>
</clipPath>
</defs>
</svg>
