<svg width="1728" height="376" viewBox="0 0 1728 376" fill="none" xmlns="http://www.w3.org/2000/svg">
<rect width="1728" height="376" fill="#2D2C2C"/>
<path d="M71.1559 185.008C67.5621 186.331 63.9085 186.537 60.1949 185.628C56.4814 184.719 53.6663 183.025 51.7496 180.546L15.8121 130.963C13.8954 128.483 13.596 125.963 14.9137 123.401C16.2314 120.839 18.6871 118.897 22.2809 117.575C25.8746 116.253 29.5282 116.046 33.2418 116.955C36.9553 117.864 39.7704 119.558 41.6871 122.038L77.6246 171.621C79.5413 174.1 79.8408 176.621 78.523 179.182C77.2053 181.744 74.7496 183.686 71.1559 185.008ZM121.468 254.425C117.875 255.747 114.221 255.954 110.507 255.045C106.794 254.136 103.979 252.442 102.062 249.963L73.3121 210.296C71.3954 207.817 71.096 205.296 72.4137 202.734C73.7314 200.173 76.1871 198.231 79.7809 196.908C83.3746 195.586 87.0283 195.38 90.7418 196.289C94.4553 197.198 97.2704 198.892 99.1871 201.371L127.937 241.038C129.854 243.517 130.153 246.037 128.836 248.599C127.518 251.161 125.062 253.103 121.468 254.425ZM150.937 204.842C147.343 206.164 143.69 206.371 139.976 205.461C136.263 204.552 133.448 202.858 131.531 200.379L81.2184 130.963C79.3017 128.483 79.0022 125.963 80.3199 123.401C81.6376 120.839 84.0934 118.897 87.6871 117.575C91.2809 116.253 94.9345 116.046 98.648 116.955C102.362 117.864 105.177 119.558 107.093 122.038L157.406 191.454C159.323 193.933 159.622 196.454 158.304 199.016C156.987 201.577 154.531 203.519 150.937 204.842ZM181.843 155.258C178.25 156.581 174.596 156.787 170.882 155.878C167.169 154.969 164.354 153.275 162.437 150.796L148.421 130.963C146.505 128.483 146.205 125.963 147.523 123.401C148.841 120.839 151.296 118.897 154.89 117.575C158.484 116.253 162.078 116.046 165.671 116.955C169.265 117.864 172.02 119.558 173.937 122.038L188.312 141.871C190.229 144.35 190.528 146.871 189.211 149.432C187.893 151.994 185.437 153.936 181.843 155.258ZM190.468 254.177C186.875 255.499 183.221 255.747 179.507 254.921C175.794 254.094 172.979 252.442 171.062 249.963L156.687 230.129C154.77 227.65 154.471 225.13 155.789 222.568C157.106 220.006 159.562 218.064 163.156 216.742C166.75 215.419 170.403 215.213 174.117 216.122C177.83 217.031 180.645 218.725 182.562 221.204L196.937 241.038C198.854 243.517 199.153 245.996 197.836 248.475C196.518 250.954 194.062 252.855 190.468 254.177ZM257.312 254.177C253.718 255.499 250.065 255.747 246.351 254.921C242.638 254.094 239.823 252.442 237.906 249.963L187.593 180.546C185.677 178.067 185.377 175.546 186.695 172.984C188.013 170.423 190.468 168.481 194.062 167.158C197.656 165.836 201.31 165.63 205.023 166.539C208.737 167.448 211.552 169.142 213.468 171.621L263.781 241.038C265.698 243.517 265.997 245.996 264.679 248.475C263.362 250.954 260.906 252.855 257.312 254.177ZM279.593 194.925C276 196.247 272.346 196.454 268.632 195.545C264.919 194.636 262.104 192.942 260.187 190.463L217.062 130.963C215.145 128.483 214.846 125.963 216.164 123.401C217.481 120.839 219.937 118.897 223.531 117.575C227.125 116.253 230.778 116.046 234.492 116.955C238.205 117.864 241.02 119.558 242.937 122.038L286.062 181.538C287.979 184.017 288.278 186.537 286.961 189.099C285.643 191.661 283.187 193.603 279.593 194.925ZM322.718 254.425C319.125 255.747 315.471 255.954 311.757 255.045C308.044 254.136 305.229 252.442 303.312 249.963L281.75 220.213C279.833 217.733 279.533 215.213 280.851 212.651C282.169 210.089 284.625 208.147 288.218 206.825C291.812 205.503 295.466 205.296 299.179 206.205C302.893 207.114 305.708 208.808 307.625 211.288L329.187 241.038C331.104 243.517 331.403 246.037 330.086 248.599C328.768 251.161 326.312 253.103 322.718 254.425Z" fill="#606060"/>
<path d="M1323.38 215.083C1322.2 215.083 1321.18 214.742 1320.3 214.058C1319.42 213.375 1318.98 212.578 1318.98 211.667C1318.98 210.756 1319.42 209.958 1320.3 209.275C1321.18 208.592 1322.2 208.25 1323.38 208.25C1324.55 208.25 1325.57 208.592 1326.45 209.275C1327.33 209.958 1327.77 210.756 1327.77 211.667C1327.77 212.578 1327.33 213.375 1326.45 214.058C1325.57 214.742 1324.55 215.083 1323.38 215.083ZM1323.38 187.75C1322.2 187.75 1321.18 187.408 1320.3 186.725C1319.42 186.042 1318.98 185.244 1318.98 184.333C1318.98 183.422 1319.42 182.625 1320.3 181.942C1321.18 181.258 1322.2 180.917 1323.38 180.917C1324.55 180.917 1325.57 181.258 1326.45 181.942C1327.33 182.625 1327.77 183.422 1327.77 184.333C1327.77 185.244 1327.33 186.042 1326.45 186.725C1325.57 187.408 1324.55 187.75 1323.38 187.75ZM1349.75 245.833C1347.26 245.833 1345.17 245.178 1343.49 243.869C1341.8 242.559 1340.96 240.936 1340.96 239C1340.96 237.064 1341.8 235.441 1343.49 234.131C1345.17 232.821 1347.26 232.167 1349.75 232.167C1352.24 232.167 1354.33 232.821 1356.01 234.131C1357.7 235.441 1358.54 237.064 1358.54 239C1358.54 240.936 1357.7 242.559 1356.01 243.869C1354.33 245.178 1352.24 245.833 1349.75 245.833ZM1349.75 218.5C1347.26 218.5 1345.17 217.845 1343.49 216.535C1341.8 215.226 1340.96 213.603 1340.96 211.667C1340.96 209.731 1341.8 208.108 1343.49 206.798C1345.17 205.488 1347.26 204.833 1349.75 204.833C1352.24 204.833 1354.33 205.488 1356.01 206.798C1357.7 208.108 1358.54 209.731 1358.54 211.667C1358.54 213.603 1357.7 215.226 1356.01 216.535C1354.33 217.845 1352.24 218.5 1349.75 218.5ZM1349.75 191.167C1347.26 191.167 1345.17 190.512 1343.49 189.202C1341.8 187.892 1340.96 186.269 1340.96 184.333C1340.96 182.397 1341.8 180.774 1343.49 179.465C1345.17 178.155 1347.26 177.5 1349.75 177.5C1352.24 177.5 1354.33 178.155 1356.01 179.465C1357.7 180.774 1358.54 182.397 1358.54 184.333C1358.54 186.269 1357.7 187.892 1356.01 189.202C1354.33 190.512 1352.24 191.167 1349.75 191.167ZM1349.75 163.833C1347.26 163.833 1345.17 163.178 1343.49 161.869C1341.8 160.559 1340.96 158.936 1340.96 157C1340.96 155.064 1341.8 153.441 1343.49 152.131C1345.17 150.822 1347.26 150.167 1349.75 150.167C1352.24 150.167 1354.33 150.822 1356.01 152.131C1357.7 153.441 1358.54 155.064 1358.54 157C1358.54 158.936 1357.7 160.559 1356.01 161.869C1354.33 163.178 1352.24 163.833 1349.75 163.833ZM1384.92 221.917C1381.25 221.917 1378.14 220.92 1375.58 218.927C1373.01 216.934 1371.73 214.514 1371.73 211.667C1371.73 208.819 1373.01 206.399 1375.58 204.406C1378.14 202.413 1381.25 201.417 1384.92 201.417C1388.58 201.417 1391.69 202.413 1394.26 204.406C1396.82 206.399 1398.1 208.819 1398.1 211.667C1398.1 214.514 1396.82 216.934 1394.26 218.927C1391.69 220.92 1388.58 221.917 1384.92 221.917ZM1384.92 194.583C1381.25 194.583 1378.14 193.587 1375.58 191.594C1373.01 189.601 1371.73 187.181 1371.73 184.333C1371.73 181.486 1373.01 179.066 1375.58 177.073C1378.14 175.08 1381.25 174.083 1384.92 174.083C1388.58 174.083 1391.69 175.08 1394.26 177.073C1396.82 179.066 1398.1 181.486 1398.1 184.333C1398.1 187.181 1396.82 189.601 1394.26 191.594C1391.69 193.587 1388.58 194.583 1384.92 194.583ZM1384.92 245.833C1382.43 245.833 1380.34 245.178 1378.65 243.869C1376.97 242.559 1376.13 240.936 1376.13 239C1376.13 237.064 1376.97 235.441 1378.65 234.131C1380.34 232.821 1382.43 232.167 1384.92 232.167C1387.41 232.167 1389.5 232.821 1391.18 234.131C1392.87 235.441 1393.71 237.064 1393.71 239C1393.71 240.936 1392.87 242.559 1391.18 243.869C1389.5 245.178 1387.41 245.833 1384.92 245.833ZM1384.92 163.833C1382.43 163.833 1380.34 163.178 1378.65 161.869C1376.97 160.559 1376.13 158.936 1376.13 157C1376.13 155.064 1376.97 153.441 1378.65 152.131C1380.34 150.822 1382.43 150.167 1384.92 150.167C1387.41 150.167 1389.5 150.822 1391.18 152.131C1392.87 153.441 1393.71 155.064 1393.71 157C1393.71 158.936 1392.87 160.559 1391.18 161.869C1389.5 163.178 1387.41 163.833 1384.92 163.833ZM1384.92 262.917C1383.74 262.917 1382.72 262.575 1381.84 261.892C1380.96 261.208 1380.52 260.411 1380.52 259.5C1380.52 258.589 1380.96 257.792 1381.84 257.108C1382.72 256.425 1383.74 256.083 1384.92 256.083C1386.09 256.083 1387.11 256.425 1387.99 257.108C1388.87 257.792 1389.31 258.589 1389.31 259.5C1389.31 260.411 1388.87 261.208 1387.99 261.892C1387.11 262.575 1386.09 262.917 1384.92 262.917ZM1384.92 139.917C1383.74 139.917 1382.72 139.575 1381.84 138.892C1380.96 138.208 1380.52 137.411 1380.52 136.5C1380.52 135.589 1380.96 134.792 1381.84 134.108C1382.72 133.425 1383.74 133.083 1384.92 133.083C1386.09 133.083 1387.11 133.425 1387.99 134.108C1388.87 134.792 1389.31 135.589 1389.31 136.5C1389.31 137.411 1388.87 138.208 1387.99 138.892C1387.11 139.575 1386.09 139.917 1384.92 139.917ZM1420.08 221.917C1416.42 221.917 1413.31 220.92 1410.74 218.927C1408.18 216.934 1406.9 214.514 1406.9 211.667C1406.9 208.819 1408.18 206.399 1410.74 204.406C1413.31 202.413 1416.42 201.417 1420.08 201.417C1423.75 201.417 1426.86 202.413 1429.42 204.406C1431.99 206.399 1433.27 208.819 1433.27 211.667C1433.27 214.514 1431.99 216.934 1429.42 218.927C1426.86 220.92 1423.75 221.917 1420.08 221.917ZM1420.08 194.583C1416.42 194.583 1413.31 193.587 1410.74 191.594C1408.18 189.601 1406.9 187.181 1406.9 184.333C1406.9 181.486 1408.18 179.066 1410.74 177.073C1413.31 175.08 1416.42 174.083 1420.08 174.083C1423.75 174.083 1426.86 175.08 1429.42 177.073C1431.99 179.066 1433.27 181.486 1433.27 184.333C1433.27 187.181 1431.99 189.601 1429.42 191.594C1426.86 193.587 1423.75 194.583 1420.08 194.583ZM1420.08 245.833C1417.59 245.833 1415.5 245.178 1413.82 243.869C1412.13 242.559 1411.29 240.936 1411.29 239C1411.29 237.064 1412.13 235.441 1413.82 234.131C1415.5 232.821 1417.59 232.167 1420.08 232.167C1422.57 232.167 1424.66 232.821 1426.35 234.131C1428.03 235.441 1428.88 237.064 1428.88 239C1428.88 240.936 1428.03 242.559 1426.35 243.869C1424.66 245.178 1422.57 245.833 1420.08 245.833ZM1420.08 163.833C1417.59 163.833 1415.5 163.178 1413.82 161.869C1412.13 160.559 1411.29 158.936 1411.29 157C1411.29 155.064 1412.13 153.441 1413.82 152.131C1415.5 150.822 1417.59 150.167 1420.08 150.167C1422.57 150.167 1424.66 150.822 1426.35 152.131C1428.03 153.441 1428.88 155.064 1428.88 157C1428.88 158.936 1428.03 160.559 1426.35 161.869C1424.66 163.178 1422.57 163.833 1420.08 163.833ZM1420.08 262.917C1418.91 262.917 1417.89 262.575 1417.01 261.892C1416.13 261.208 1415.69 260.411 1415.69 259.5C1415.69 258.589 1416.13 257.792 1417.01 257.108C1417.89 256.425 1418.91 256.083 1420.08 256.083C1421.26 256.083 1422.28 256.425 1423.16 257.108C1424.04 257.792 1424.48 258.589 1424.48 259.5C1424.48 260.411 1424.04 261.208 1423.16 261.892C1422.28 262.575 1421.26 262.917 1420.08 262.917ZM1420.08 139.917C1418.91 139.917 1417.89 139.575 1417.01 138.892C1416.13 138.208 1415.69 137.411 1415.69 136.5C1415.69 135.589 1416.13 134.792 1417.01 134.108C1417.89 133.425 1418.91 133.083 1420.08 133.083C1421.26 133.083 1422.28 133.425 1423.16 134.108C1424.04 134.792 1424.48 135.589 1424.48 136.5C1424.48 137.411 1424.04 138.208 1423.16 138.892C1422.28 139.575 1421.26 139.917 1420.08 139.917ZM1455.25 245.833C1452.76 245.833 1450.67 245.178 1448.99 243.869C1447.3 242.559 1446.46 240.936 1446.46 239C1446.46 237.064 1447.3 235.441 1448.99 234.131C1450.67 232.821 1452.76 232.167 1455.25 232.167C1457.74 232.167 1459.83 232.821 1461.51 234.131C1463.2 235.441 1464.04 237.064 1464.04 239C1464.04 240.936 1463.2 242.559 1461.51 243.869C1459.83 245.178 1457.74 245.833 1455.25 245.833ZM1455.25 218.5C1452.76 218.5 1450.67 217.845 1448.99 216.535C1447.3 215.226 1446.46 213.603 1446.46 211.667C1446.46 209.731 1447.3 208.108 1448.99 206.798C1450.67 205.488 1452.76 204.833 1455.25 204.833C1457.74 204.833 1459.83 205.488 1461.51 206.798C1463.2 208.108 1464.04 209.731 1464.04 211.667C1464.04 213.603 1463.2 215.226 1461.51 216.535C1459.83 217.845 1457.74 218.5 1455.25 218.5ZM1455.25 191.167C1452.76 191.167 1450.67 190.512 1448.99 189.202C1447.3 187.892 1446.46 186.269 1446.46 184.333C1446.46 182.397 1447.3 180.774 1448.99 179.465C1450.67 178.155 1452.76 177.5 1455.25 177.5C1457.74 177.5 1459.83 178.155 1461.51 179.465C1463.2 180.774 1464.04 182.397 1464.04 184.333C1464.04 186.269 1463.2 187.892 1461.51 189.202C1459.83 190.512 1457.74 191.167 1455.25 191.167ZM1455.25 163.833C1452.76 163.833 1450.67 163.178 1448.99 161.869C1447.3 160.559 1446.46 158.936 1446.46 157C1446.46 155.064 1447.3 153.441 1448.99 152.131C1450.67 150.822 1452.76 150.167 1455.25 150.167C1457.74 150.167 1459.83 150.822 1461.51 152.131C1463.2 153.441 1464.04 155.064 1464.04 157C1464.04 158.936 1463.2 160.559 1461.51 161.869C1459.83 163.178 1457.74 163.833 1455.25 163.833ZM1481.63 215.083C1480.45 215.083 1479.43 214.742 1478.55 214.058C1477.67 213.375 1477.23 212.578 1477.23 211.667C1477.23 210.756 1477.67 209.958 1478.55 209.275C1479.43 208.592 1480.45 208.25 1481.63 208.25C1482.8 208.25 1483.82 208.592 1484.7 209.275C1485.58 209.958 1486.02 210.756 1486.02 211.667C1486.02 212.578 1485.58 213.375 1484.7 214.058C1483.82 214.742 1482.8 215.083 1481.63 215.083ZM1481.63 187.75C1480.45 187.75 1479.43 187.408 1478.55 186.725C1477.67 186.042 1477.23 185.244 1477.23 184.333C1477.23 183.422 1477.67 182.625 1478.55 181.942C1479.43 181.258 1480.45 180.917 1481.63 180.917C1482.8 180.917 1483.82 181.258 1484.7 181.942C1485.58 182.625 1486.02 183.422 1486.02 184.333C1486.02 185.244 1485.58 186.042 1484.7 186.725C1483.82 187.408 1482.8 187.75 1481.63 187.75Z" fill="#626262"/>
<circle cx="507" cy="135" r="102" fill="url(#paint0_linear_366_40)"/>
<ellipse cx="572" cy="71.5" rx="37" ry="42.5" fill="#212121" fill-opacity="0.7"/>
<path d="M944.167 157.629V280.371C941.381 277.939 938.759 275.364 936.3 272.646C933.842 269.928 931.548 267.138 929.417 264.277V173.723C931.548 170.862 933.842 168.072 936.3 165.354C938.759 162.636 941.381 160.061 944.167 157.629ZM983.5 137.029V300.971C980.059 299.969 976.699 298.861 973.421 297.645C970.143 296.429 966.948 295.034 963.834 293.46V144.54C966.948 142.966 970.143 141.571 973.421 140.355C976.699 139.139 980.059 138.031 983.5 137.029ZM1052.33 297.752V140.248C1069.71 146.972 1083.88 157.343 1094.86 171.363C1105.84 185.382 1111.33 201.261 1111.33 219C1111.33 236.739 1105.84 252.618 1094.86 266.638C1083.88 280.657 1069.71 291.028 1052.33 297.752ZM1013 304.833C1011.36 304.833 1009.72 304.798 1008.08 304.726C1006.44 304.655 1004.81 304.547 1003.17 304.404V133.596C1004.81 133.453 1006.44 133.346 1008.08 133.274C1009.72 133.202 1011.36 133.167 1013 133.167C1016.28 133.167 1019.56 133.31 1022.83 133.596C1026.11 133.882 1029.39 134.311 1032.67 134.883V303.117C1029.39 303.689 1026.11 304.118 1022.83 304.404C1019.56 304.69 1016.28 304.833 1013 304.833Z" fill="url(#paint1_linear_366_40)" fill-opacity="0.12"/>
<ellipse cx="845" cy="112" rx="19" ry="20" fill="url(#paint2_linear_366_40)" fill-opacity="0.13"/>
<ellipse cx="1234" cy="322" rx="19" ry="20" fill="url(#paint3_linear_366_40)" fill-opacity="0.13"/>
<ellipse cx="1614" cy="96" rx="19" ry="20" fill="url(#paint4_linear_366_40)" fill-opacity="0.13"/>
<ellipse cx="572" cy="285" rx="19" ry="20" fill="url(#paint5_linear_366_40)" fill-opacity="0.13"/>
<defs>
<linearGradient id="paint0_linear_366_40" x1="507" y1="33" x2="507" y2="237" gradientUnits="userSpaceOnUse">
<stop stop-color="#EAFF6A" stop-opacity="0.12"/>
<stop offset="1" stop-color="#1A8CB0" stop-opacity="0.11"/>
</linearGradient>
<linearGradient id="paint1_linear_366_40" x1="1020.38" y1="133.167" x2="1020.38" y2="304.833" gradientUnits="userSpaceOnUse">
<stop stop-color="#1A8CB0" stop-opacity="0.11"/>
<stop offset="1" stop-color="#EAFF6A"/>
</linearGradient>
<linearGradient id="paint2_linear_366_40" x1="845" y1="92" x2="845" y2="132" gradientUnits="userSpaceOnUse">
<stop stop-color="#EAFF6A"/>
<stop offset="1" stop-color="#1A8CB0" stop-opacity="0.15"/>
</linearGradient>
<linearGradient id="paint3_linear_366_40" x1="1234" y1="302" x2="1234" y2="342" gradientUnits="userSpaceOnUse">
<stop stop-color="#EAFF6A"/>
<stop offset="1" stop-color="#1A8CB0" stop-opacity="0.15"/>
</linearGradient>
<linearGradient id="paint4_linear_366_40" x1="1614" y1="76" x2="1614" y2="116" gradientUnits="userSpaceOnUse">
<stop stop-color="#EAFF6A"/>
<stop offset="1" stop-color="#1A8CB0" stop-opacity="0.15"/>
</linearGradient>
<linearGradient id="paint5_linear_366_40" x1="572" y1="265" x2="572" y2="305" gradientUnits="userSpaceOnUse">
<stop stop-color="#EAFF6A"/>
<stop offset="1" stop-color="#1A8CB0" stop-opacity="0.15"/>
</linearGradient>
</defs>
</svg>
