<svg width="1728" height="1117" viewBox="0 0 1728 1117" fill="none" xmlns="http://www.w3.org/2000/svg">
<g clip-path="url(#clip0_376_204)">
<mask id="mask0_376_204" style="mask-type:luminance" maskUnits="userSpaceOnUse" x="0" y="0" width="1728" height="1117">
<path d="M1728 0H0V1117H1728V0Z" fill="white"/>
</mask>
<g mask="url(#mask0_376_204)">
<path d="M1728 0H0V1117H1728V0Z" fill="#212121"/>
<path fill-rule="evenodd" clip-rule="evenodd" d="M185.542 671.841C258.886 682.751 270.629 786.887 320.324 841.921C355.705 881.103 409.288 900.014 433.8 946.769C461.47 999.546 489.819 1064.03 465.229 1118.31C440.751 1172.34 365.791 1174.76 315.947 1206.92C270.151 1236.47 238.288 1285.05 185.542 1298.76C122.268 1315.22 40.2221 1337.16 -5.61502 1290.54C-52.9814 1242.37 4.62315 1157.25 -16.6485 1093.13C-38.1645 1028.27 -134.497 993.904 -126.534 926.034C-118.815 860.249 -33.2563 838.8 18.0998 796.969C73.4786 751.862 114.894 661.334 185.542 671.841Z" fill="url(#paint0_linear_376_204)"/>
<path d="M85 108C95.4934 108 104 99.0457 104 88C104 76.9543 95.4934 68 85 68C74.5066 68 66 76.9543 66 88C66 99.0457 74.5066 108 85 108Z" fill="url(#paint1_linear_376_204)" fill-opacity="0.13"/>
<path d="M451.882 472.866C462.311 474.033 471.761 466.081 472.989 455.104C474.218 444.127 466.761 434.282 456.332 433.114C445.904 431.947 436.454 439.899 435.225 450.876C433.996 461.853 441.454 471.699 451.882 472.866Z" fill="url(#paint2_linear_376_204)" fill-opacity="0.13"/>
<path d="M1543 1015C1553.49 1015 1562 1006.05 1562 995C1562 983.954 1553.49 975 1543 975C1532.51 975 1524 983.954 1524 995C1524 1006.05 1532.51 1015 1543 1015Z" fill="url(#paint3_linear_376_204)" fill-opacity="0.13"/>
<path d="M845 224C855.493 224 864 215.046 864 204C864 192.954 855.493 184 845 184C834.507 184 826 192.954 826 204C826 215.046 834.507 224 845 224Z" fill="url(#paint4_linear_376_204)" fill-opacity="0.13"/>
<path d="M1332 83C1342.49 83 1351 74.0457 1351 63C1351 51.9543 1342.49 43 1332 43C1321.51 43 1313 51.9543 1313 63C1313 74.0457 1321.51 83 1332 83Z" fill="url(#paint5_linear_376_204)" fill-opacity="0.13"/>
<path d="M1633 73C1643.49 73 1652 64.0457 1652 53C1652 41.9543 1643.49 33 1633 33C1622.51 33 1614 41.9543 1614 53C1614 64.0457 1622.51 73 1633 73Z" fill="url(#paint6_linear_376_204)" fill-opacity="0.13"/>
<path d="M589.5 164C636.168 164 674 130.197 674 88.5C674 46.8025 636.168 13 589.5 13C542.832 13 505 46.8025 505 88.5C505 130.197 542.832 164 589.5 164Z" fill="#212121"/>
<path d="M662.5 88.5C662.5 122.663 631.069 152.5 589.5 152.5C547.931 152.5 516.5 122.663 516.5 88.5C516.5 54.3374 547.931 24.5 589.5 24.5C631.069 24.5 662.5 54.3374 662.5 88.5Z" stroke="url(#paint7_linear_376_204)" stroke-opacity="0.13" stroke-width="23"/>
<path d="M1229.5 1090C1276.17 1090 1314 1056.2 1314 1014.5C1314 972.803 1276.17 939 1229.5 939C1182.83 939 1145 972.803 1145 1014.5C1145 1056.2 1182.83 1090 1229.5 1090Z" fill="#212121"/>
<path d="M1072 980C1072 1014.16 1040.57 1044 999 1044C957.43 1044 926 1014.16 926 980C926 945.837 957.43 916 999 916C1040.57 916 1072 945.837 1072 980Z" stroke="url(#paint8_linear_376_204)" stroke-opacity="0.13" stroke-width="23"/>
<path d="M1282.17 305.629V428.371C1279.38 425.939 1276.76 423.364 1274.3 420.646C1271.84 417.928 1269.55 415.138 1267.42 412.277V321.723C1269.55 318.862 1271.84 316.072 1274.3 313.354C1276.76 310.636 1279.38 308.061 1282.17 305.629ZM1321.5 285.029V448.971C1318.06 447.969 1314.7 446.861 1311.42 445.645C1308.14 444.429 1304.95 443.034 1301.83 441.46V292.54C1304.95 290.966 1308.14 289.571 1311.42 288.355C1314.7 287.139 1318.06 286.031 1321.5 285.029ZM1390.33 445.752V288.248C1407.71 294.972 1421.88 305.343 1432.86 319.363C1443.84 333.382 1449.33 349.261 1449.33 367C1449.33 384.739 1443.84 400.618 1432.86 414.637C1421.88 428.657 1407.71 439.028 1390.33 445.752ZM1351 452.833C1349.36 452.833 1347.72 452.798 1346.08 452.726C1344.44 452.655 1342.81 452.547 1341.17 452.404V281.596C1342.81 281.453 1344.44 281.345 1346.08 281.274C1347.72 281.202 1349.36 281.167 1351 281.167C1354.28 281.167 1357.56 281.31 1360.83 281.596C1364.11 281.882 1367.39 282.311 1370.67 282.883V451.117C1367.39 451.689 1364.11 452.118 1360.83 452.404C1357.56 452.69 1354.28 452.833 1351 452.833Z" fill="url(#paint9_linear_376_204)" fill-opacity="0.12"/>
<path d="M1474.17 830.629V953.371C1471.38 950.939 1468.76 948.364 1466.3 945.646C1463.84 942.928 1461.55 940.138 1459.42 937.277V846.723C1461.55 843.862 1463.84 841.072 1466.3 838.354C1468.76 835.636 1471.38 833.061 1474.17 830.629ZM1513.5 810.029V973.971C1510.06 972.969 1506.7 971.861 1503.42 970.645C1500.14 969.429 1496.95 968.034 1493.83 966.46V817.54C1496.95 815.966 1500.14 814.571 1503.42 813.355C1506.7 812.139 1510.06 811.031 1513.5 810.029ZM1582.33 970.752V813.248C1599.71 819.972 1613.88 830.343 1624.86 844.362C1635.84 858.382 1641.33 874.261 1641.33 892C1641.33 909.739 1635.84 925.618 1624.86 939.637C1613.88 953.657 1599.71 964.028 1582.33 970.752ZM1543 977.833C1541.36 977.833 1539.72 977.798 1538.08 977.726C1536.44 977.654 1534.81 977.547 1533.17 977.404V806.596C1534.81 806.453 1536.44 806.345 1538.08 806.274C1539.72 806.202 1541.36 806.167 1543 806.167C1546.28 806.167 1549.56 806.31 1552.83 806.596C1556.11 806.882 1559.39 807.311 1562.67 807.883V976.117C1559.39 976.689 1556.11 977.118 1552.83 977.404C1549.56 977.69 1546.28 977.833 1543 977.833Z" fill="url(#paint10_linear_376_204)" fill-opacity="0.12"/>
<path d="M76.167 182.629V305.371C73.3809 302.939 70.7587 300.364 68.3003 297.646C65.842 294.928 63.5476 292.138 61.417 289.277V198.723C63.5476 195.862 65.842 193.072 68.3003 190.354C70.7587 187.636 73.3809 185.061 76.167 182.629ZM115.5 162.029V325.971C112.058 324.969 108.698 323.861 105.421 322.645C102.143 321.429 98.9476 320.034 95.8337 318.46V169.54C98.9476 167.966 102.143 166.571 105.421 165.355C108.698 164.139 112.058 163.031 115.5 162.029ZM184.333 322.752V165.248C201.705 171.972 215.882 182.343 226.862 196.362C237.843 210.382 243.333 226.261 243.333 244C243.333 261.739 237.843 277.618 226.862 291.637C215.882 305.657 201.705 316.028 184.333 322.752ZM145 329.833C143.361 329.833 141.722 329.798 140.083 329.726C138.444 329.654 136.805 329.547 135.167 329.404V158.596C136.805 158.453 138.444 158.345 140.083 158.274C141.722 158.202 143.361 158.167 145 158.167C148.278 158.167 151.555 158.31 154.833 158.596C158.111 158.882 161.389 159.311 164.667 159.883V328.117C161.389 328.689 158.111 329.118 154.833 329.404C151.555 329.69 148.278 329.833 145 329.833Z" fill="url(#paint11_linear_376_204)" fill-opacity="0.12"/>
</g>
<path d="M714.156 557.008C710.562 558.331 706.908 558.537 703.195 557.628C699.481 556.719 696.666 555.025 694.75 552.546L658.812 502.962C656.895 500.483 656.596 497.963 657.914 495.401C659.231 492.839 661.687 490.897 665.281 489.575C668.875 488.253 672.528 488.046 676.242 488.955C679.955 489.864 682.77 491.558 684.687 494.037L720.625 543.621C722.541 546.1 722.841 548.62 721.523 551.182C720.205 553.744 717.75 555.686 714.156 557.008ZM764.468 626.425C760.875 627.747 757.221 627.954 753.507 627.045C749.794 626.136 746.979 624.442 745.062 621.962L716.312 582.296C714.395 579.817 714.096 577.296 715.414 574.734C716.731 572.173 719.187 570.231 722.781 568.908C726.375 567.586 730.028 567.379 733.742 568.289C737.455 569.198 740.27 570.892 742.187 573.371L770.937 613.037C772.854 615.517 773.153 618.037 771.836 620.599C770.518 623.161 768.062 625.103 764.468 626.425ZM793.937 576.842C790.343 578.164 786.69 578.37 782.976 577.461C779.263 576.552 776.448 574.858 774.531 572.379L724.218 502.962C722.302 500.483 722.002 497.963 723.32 495.401C724.638 492.839 727.093 490.897 730.687 489.575C734.281 488.253 737.935 488.046 741.648 488.955C745.362 489.864 748.177 491.558 750.093 494.037L800.406 563.454C802.323 565.933 802.622 568.454 801.304 571.016C799.987 573.577 797.531 575.519 793.937 576.842ZM824.843 527.258C821.25 528.581 817.596 528.787 813.882 527.878C810.169 526.969 807.354 525.275 805.437 522.796L791.421 502.962C789.505 500.483 789.205 497.963 790.523 495.401C791.841 492.839 794.296 490.897 797.89 489.575C801.484 488.253 805.078 488.046 808.671 488.955C812.265 489.864 815.02 491.558 816.937 494.037L831.312 513.871C833.229 516.35 833.528 518.87 832.211 521.432C830.893 523.994 828.437 525.936 824.843 527.258ZM833.468 626.177C829.875 627.499 826.221 627.747 822.507 626.921C818.794 626.094 815.979 624.442 814.062 621.962L799.687 602.129C797.77 599.65 797.471 597.129 798.789 594.568C800.106 592.006 802.562 590.064 806.156 588.742C809.75 587.419 813.403 587.213 817.117 588.122C820.83 589.031 823.645 590.725 825.562 593.204L839.937 613.037C841.854 615.517 842.153 617.996 840.836 620.475C839.518 622.954 837.062 624.855 833.468 626.177ZM900.312 626.177C896.718 627.499 893.065 627.747 889.351 626.921C885.638 626.094 882.823 624.442 880.906 621.962L830.593 552.546C828.677 550.067 828.377 547.546 829.695 544.984C831.013 542.423 833.468 540.481 837.062 539.158C840.656 537.836 844.31 537.629 848.023 538.539C851.737 539.448 854.552 541.142 856.468 543.621L906.781 613.037C908.698 615.517 908.997 617.996 907.679 620.475C906.362 622.954 903.906 624.855 900.312 626.177ZM922.593 566.925C919 568.247 915.346 568.454 911.632 567.545C907.919 566.636 905.104 564.942 903.187 562.462L860.062 502.962C858.145 500.483 857.846 497.963 859.164 495.401C860.481 492.839 862.937 490.897 866.531 489.575C870.125 488.253 873.778 488.046 877.492 488.955C881.205 489.864 884.02 491.558 885.937 494.037L929.062 553.537C930.979 556.017 931.278 558.537 929.961 561.099C928.643 563.661 926.187 565.603 922.593 566.925ZM965.718 626.425C962.125 627.747 958.471 627.954 954.757 627.045C951.044 626.136 948.229 624.442 946.312 621.962L924.75 592.212C922.833 589.733 922.533 587.213 923.851 584.651C925.169 582.089 927.625 580.147 931.218 578.825C934.812 577.503 938.466 577.296 942.179 578.205C945.893 579.114 948.708 580.808 950.625 583.287L972.187 613.037C974.104 615.517 974.403 618.037 973.086 620.599C971.768 623.161 969.312 625.103 965.718 626.425Z" fill="#606060"/>
<path d="M1240.38 851.083C1239.2 851.083 1238.18 850.742 1237.3 850.058C1236.42 849.375 1235.98 848.578 1235.98 847.667C1235.98 846.755 1236.42 845.958 1237.3 845.275C1238.18 844.592 1239.2 844.25 1240.38 844.25C1241.55 844.25 1242.57 844.592 1243.45 845.275C1244.33 845.958 1244.77 846.755 1244.77 847.667C1244.77 848.578 1244.33 849.375 1243.45 850.058C1242.57 850.742 1241.55 851.083 1240.38 851.083ZM1240.38 823.75C1239.2 823.75 1238.18 823.408 1237.3 822.725C1236.42 822.042 1235.98 821.244 1235.98 820.333C1235.98 819.422 1236.42 818.625 1237.3 817.942C1238.18 817.258 1239.2 816.917 1240.38 816.917C1241.55 816.917 1242.57 817.258 1243.45 817.942C1244.33 818.625 1244.77 819.422 1244.77 820.333C1244.77 821.244 1244.33 822.042 1243.45 822.725C1242.57 823.408 1241.55 823.75 1240.38 823.75ZM1266.75 881.833C1264.26 881.833 1262.17 881.178 1260.49 879.869C1258.8 878.559 1257.96 876.936 1257.96 875C1257.96 873.064 1258.8 871.441 1260.49 870.131C1262.17 868.821 1264.26 868.167 1266.75 868.167C1269.24 868.167 1271.33 868.821 1273.01 870.131C1274.7 871.441 1275.54 873.064 1275.54 875C1275.54 876.936 1274.7 878.559 1273.01 879.869C1271.33 881.178 1269.24 881.833 1266.75 881.833ZM1266.75 854.5C1264.26 854.5 1262.17 853.845 1260.49 852.535C1258.8 851.226 1257.96 849.603 1257.96 847.667C1257.96 845.73 1258.8 844.108 1260.49 842.798C1262.17 841.488 1264.26 840.833 1266.75 840.833C1269.24 840.833 1271.33 841.488 1273.01 842.798C1274.7 844.108 1275.54 845.73 1275.54 847.667C1275.54 849.603 1274.7 851.226 1273.01 852.535C1271.33 853.845 1269.24 854.5 1266.75 854.5ZM1266.75 827.167C1264.26 827.167 1262.17 826.512 1260.49 825.202C1258.8 823.892 1257.96 822.269 1257.96 820.333C1257.96 818.397 1258.8 816.774 1260.49 815.464C1262.17 814.155 1264.26 813.5 1266.75 813.5C1269.24 813.5 1271.33 814.155 1273.01 815.464C1274.7 816.774 1275.54 818.397 1275.54 820.333C1275.54 822.269 1274.7 823.892 1273.01 825.202C1271.33 826.512 1269.24 827.167 1266.75 827.167ZM1266.75 799.833C1264.26 799.833 1262.17 799.178 1260.49 797.869C1258.8 796.559 1257.96 794.936 1257.96 793C1257.96 791.064 1258.8 789.441 1260.49 788.131C1262.17 786.821 1264.26 786.167 1266.75 786.167C1269.24 786.167 1271.33 786.821 1273.01 788.131C1274.7 789.441 1275.54 791.064 1275.54 793C1275.54 794.936 1274.7 796.559 1273.01 797.869C1271.33 799.178 1269.24 799.833 1266.75 799.833ZM1301.92 857.917C1298.25 857.917 1295.14 856.92 1292.58 854.927C1290.01 852.934 1288.73 850.514 1288.73 847.667C1288.73 844.819 1290.01 842.399 1292.58 840.406C1295.14 838.413 1298.25 837.417 1301.92 837.417C1305.58 837.417 1308.69 838.413 1311.26 840.406C1313.82 842.399 1315.1 844.819 1315.1 847.667C1315.1 850.514 1313.82 852.934 1311.26 854.927C1308.69 856.92 1305.58 857.917 1301.92 857.917ZM1301.92 830.583C1298.25 830.583 1295.14 829.587 1292.58 827.594C1290.01 825.601 1288.73 823.18 1288.73 820.333C1288.73 817.486 1290.01 815.066 1292.58 813.073C1295.14 811.08 1298.25 810.083 1301.92 810.083C1305.58 810.083 1308.69 811.08 1311.26 813.073C1313.82 815.066 1315.1 817.486 1315.1 820.333C1315.1 823.18 1313.82 825.601 1311.26 827.594C1308.69 829.587 1305.58 830.583 1301.92 830.583ZM1301.92 881.833C1299.43 881.833 1297.34 881.178 1295.65 879.869C1293.97 878.559 1293.13 876.936 1293.13 875C1293.13 873.064 1293.97 871.441 1295.65 870.131C1297.34 868.821 1299.43 868.167 1301.92 868.167C1304.41 868.167 1306.5 868.821 1308.18 870.131C1309.87 871.441 1310.71 873.064 1310.71 875C1310.71 876.936 1309.87 878.559 1308.18 879.869C1306.5 881.178 1304.41 881.833 1301.92 881.833ZM1301.92 799.833C1299.43 799.833 1297.34 799.178 1295.65 797.869C1293.97 796.559 1293.13 794.936 1293.13 793C1293.13 791.064 1293.97 789.441 1295.65 788.131C1297.34 786.821 1299.43 786.167 1301.92 786.167C1304.41 786.167 1306.5 786.821 1308.18 788.131C1309.87 789.441 1310.71 791.064 1310.71 793C1310.71 794.936 1309.87 796.559 1308.18 797.869C1306.5 799.178 1304.41 799.833 1301.92 799.833ZM1301.92 898.917C1300.74 898.917 1299.72 898.575 1298.84 897.892C1297.96 897.208 1297.52 896.411 1297.52 895.5C1297.52 894.589 1297.96 893.792 1298.84 893.108C1299.72 892.425 1300.74 892.083 1301.92 892.083C1303.09 892.083 1304.11 892.425 1304.99 893.108C1305.87 893.792 1306.31 894.589 1306.31 895.5C1306.31 896.411 1305.87 897.208 1304.99 897.892C1304.11 898.575 1303.09 898.917 1301.92 898.917ZM1301.92 775.917C1300.74 775.917 1299.72 775.575 1298.84 774.892C1297.96 774.208 1297.52 773.411 1297.52 772.5C1297.52 771.589 1297.96 770.792 1298.84 770.108C1299.72 769.425 1300.74 769.083 1301.92 769.083C1303.09 769.083 1304.11 769.425 1304.99 770.108C1305.87 770.792 1306.31 771.589 1306.31 772.5C1306.31 773.411 1305.87 774.208 1304.99 774.892C1304.11 775.575 1303.09 775.917 1301.92 775.917ZM1337.08 857.917C1333.42 857.917 1330.31 856.92 1327.74 854.927C1325.18 852.934 1323.9 850.514 1323.9 847.667C1323.9 844.819 1325.18 842.399 1327.74 840.406C1330.31 838.413 1333.42 837.417 1337.08 837.417C1340.75 837.417 1343.86 838.413 1346.42 840.406C1348.99 842.399 1350.27 844.819 1350.27 847.667C1350.27 850.514 1348.99 852.934 1346.42 854.927C1343.86 856.92 1340.75 857.917 1337.08 857.917ZM1337.08 830.583C1333.42 830.583 1330.31 829.587 1327.74 827.594C1325.18 825.601 1323.9 823.18 1323.9 820.333C1323.9 817.486 1325.18 815.066 1327.74 813.073C1330.31 811.08 1333.42 810.083 1337.08 810.083C1340.75 810.083 1343.86 811.08 1346.42 813.073C1348.99 815.066 1350.27 817.486 1350.27 820.333C1350.27 823.18 1348.99 825.601 1346.42 827.594C1343.86 829.587 1340.75 830.583 1337.08 830.583ZM1337.08 881.833C1334.59 881.833 1332.5 881.178 1330.82 879.869C1329.13 878.559 1328.29 876.936 1328.29 875C1328.29 873.064 1329.13 871.441 1330.82 870.131C1332.5 868.821 1334.59 868.167 1337.08 868.167C1339.57 868.167 1341.66 868.821 1343.35 870.131C1345.03 871.441 1345.88 873.064 1345.88 875C1345.88 876.936 1345.03 878.559 1343.35 879.869C1341.66 881.178 1339.57 881.833 1337.08 881.833ZM1337.08 799.833C1334.59 799.833 1332.5 799.178 1330.82 797.869C1329.13 796.559 1328.29 794.936 1328.29 793C1328.29 791.064 1329.13 789.441 1330.82 788.131C1332.5 786.821 1334.59 786.167 1337.08 786.167C1339.57 786.167 1341.66 786.821 1343.35 788.131C1345.03 789.441 1345.88 791.064 1345.88 793C1345.88 794.936 1345.03 796.559 1343.35 797.869C1341.66 799.178 1339.57 799.833 1337.08 799.833ZM1337.08 898.917C1335.91 898.917 1334.89 898.575 1334.01 897.892C1333.13 897.208 1332.69 896.411 1332.69 895.5C1332.69 894.589 1333.13 893.792 1334.01 893.108C1334.89 892.425 1335.91 892.083 1337.08 892.083C1338.26 892.083 1339.28 892.425 1340.16 893.108C1341.04 893.792 1341.48 894.589 1341.48 895.5C1341.48 896.411 1341.04 897.208 1340.16 897.892C1339.28 898.575 1338.26 898.917 1337.08 898.917ZM1337.08 775.917C1335.91 775.917 1334.89 775.575 1334.01 774.892C1333.13 774.208 1332.69 773.411 1332.69 772.5C1332.69 771.589 1333.13 770.792 1334.01 770.108C1334.89 769.425 1335.91 769.083 1337.08 769.083C1338.26 769.083 1339.28 769.425 1340.16 770.108C1341.04 770.792 1341.48 771.589 1341.48 772.5C1341.48 773.411 1341.04 774.208 1340.16 774.892C1339.28 775.575 1338.26 775.917 1337.08 775.917ZM1372.25 881.833C1369.76 881.833 1367.67 881.178 1365.99 879.869C1364.3 878.559 1363.46 876.936 1363.46 875C1363.46 873.064 1364.3 871.441 1365.99 870.131C1367.67 868.821 1369.76 868.167 1372.25 868.167C1374.74 868.167 1376.83 868.821 1378.51 870.131C1380.2 871.441 1381.04 873.064 1381.04 875C1381.04 876.936 1380.2 878.559 1378.51 879.869C1376.83 881.178 1374.74 881.833 1372.25 881.833ZM1372.25 854.5C1369.76 854.5 1367.67 853.845 1365.99 852.535C1364.3 851.226 1363.46 849.603 1363.46 847.667C1363.46 845.73 1364.3 844.108 1365.99 842.798C1367.67 841.488 1369.76 840.833 1372.25 840.833C1374.74 840.833 1376.83 841.488 1378.51 842.798C1380.2 844.108 1381.04 845.73 1381.04 847.667C1381.04 849.603 1380.2 851.226 1378.51 852.535C1376.83 853.845 1374.74 854.5 1372.25 854.5ZM1372.25 827.167C1369.76 827.167 1367.67 826.512 1365.99 825.202C1364.3 823.892 1363.46 822.269 1363.46 820.333C1363.46 818.397 1364.3 816.774 1365.99 815.464C1367.67 814.155 1369.76 813.5 1372.25 813.5C1374.74 813.5 1376.83 814.155 1378.51 815.464C1380.2 816.774 1381.04 818.397 1381.04 820.333C1381.04 822.269 1380.2 823.892 1378.51 825.202C1376.83 826.512 1374.74 827.167 1372.25 827.167ZM1372.25 799.833C1369.76 799.833 1367.67 799.178 1365.99 797.869C1364.3 796.559 1363.46 794.936 1363.46 793C1363.46 791.064 1364.3 789.441 1365.99 788.131C1367.67 786.821 1369.76 786.167 1372.25 786.167C1374.74 786.167 1376.83 786.821 1378.51 788.131C1380.2 789.441 1381.04 791.064 1381.04 793C1381.04 794.936 1380.2 796.559 1378.51 797.869C1376.83 799.178 1374.74 799.833 1372.25 799.833ZM1398.63 851.083C1397.45 851.083 1396.43 850.742 1395.55 850.058C1394.67 849.375 1394.23 848.578 1394.23 847.667C1394.23 846.755 1394.67 845.958 1395.55 845.275C1396.43 844.592 1397.45 844.25 1398.63 844.25C1399.8 844.25 1400.82 844.592 1401.7 845.275C1402.58 845.958 1403.02 846.755 1403.02 847.667C1403.02 848.578 1402.58 849.375 1401.7 850.058C1400.82 850.742 1399.8 851.083 1398.63 851.083ZM1398.63 823.75C1397.45 823.75 1396.43 823.408 1395.55 822.725C1394.67 822.042 1394.23 821.244 1394.23 820.333C1394.23 819.422 1394.67 818.625 1395.55 817.942C1396.43 817.258 1397.45 816.917 1398.63 816.917C1399.8 816.917 1400.82 817.258 1401.7 817.942C1402.58 818.625 1403.02 819.422 1403.02 820.333C1403.02 821.244 1402.58 822.042 1401.7 822.725C1400.82 823.408 1399.8 823.75 1398.63 823.75Z" fill="#626262"/>
</g>
<defs>
<linearGradient id="paint0_linear_376_204" x1="173.812" y1="671" x2="173.812" y2="1318.57" gradientUnits="userSpaceOnUse">
<stop stop-color="#1A8CB0" stop-opacity="0.07"/>
<stop offset="1" stop-color="#EAFF6A" stop-opacity="0.09"/>
</linearGradient>
<linearGradient id="paint1_linear_376_204" x1="85" y1="68" x2="85" y2="108" gradientUnits="userSpaceOnUse">
<stop stop-color="#EAFF6A"/>
<stop offset="1" stop-color="#1A8CB0" stop-opacity="0.15"/>
</linearGradient>
<linearGradient id="paint2_linear_376_204" x1="456.332" y1="433.114" x2="451.882" y2="472.866" gradientUnits="userSpaceOnUse">
<stop stop-color="#EAFF6A"/>
<stop offset="1" stop-color="#1A8CB0" stop-opacity="0.15"/>
</linearGradient>
<linearGradient id="paint3_linear_376_204" x1="1543" y1="975" x2="1543" y2="1015" gradientUnits="userSpaceOnUse">
<stop stop-color="#EAFF6A"/>
<stop offset="1" stop-color="#1A8CB0" stop-opacity="0.15"/>
</linearGradient>
<linearGradient id="paint4_linear_376_204" x1="845" y1="184" x2="845" y2="224" gradientUnits="userSpaceOnUse">
<stop stop-color="#EAFF6A"/>
<stop offset="1" stop-color="#1A8CB0" stop-opacity="0.15"/>
</linearGradient>
<linearGradient id="paint5_linear_376_204" x1="1332" y1="43" x2="1332" y2="83" gradientUnits="userSpaceOnUse">
<stop stop-color="#EAFF6A"/>
<stop offset="1" stop-color="#1A8CB0" stop-opacity="0.15"/>
</linearGradient>
<linearGradient id="paint6_linear_376_204" x1="1633" y1="33" x2="1633" y2="73" gradientUnits="userSpaceOnUse">
<stop stop-color="#EAFF6A"/>
<stop offset="1" stop-color="#1A8CB0" stop-opacity="0.15"/>
</linearGradient>
<linearGradient id="paint7_linear_376_204" x1="589.5" y1="13" x2="589.5" y2="164" gradientUnits="userSpaceOnUse">
<stop stop-color="#EAFF6A"/>
<stop offset="1" stop-color="#1A8CB0" stop-opacity="0.14"/>
</linearGradient>
<linearGradient id="paint8_linear_376_204" x1="999" y1="904.5" x2="999" y2="1055.5" gradientUnits="userSpaceOnUse">
<stop stop-color="#EAFF6A"/>
<stop offset="1" stop-color="#1A8CB0" stop-opacity="0.14"/>
</linearGradient>
<linearGradient id="paint9_linear_376_204" x1="1358.37" y1="281.167" x2="1358.37" y2="452.833" gradientUnits="userSpaceOnUse">
<stop stop-color="#1A8CB0" stop-opacity="0.11"/>
<stop offset="1" stop-color="#EAFF6A"/>
</linearGradient>
<linearGradient id="paint10_linear_376_204" x1="1550.37" y1="806.167" x2="1550.37" y2="977.833" gradientUnits="userSpaceOnUse">
<stop stop-color="#1A8CB0" stop-opacity="0.11"/>
<stop offset="1" stop-color="#EAFF6A"/>
</linearGradient>
<linearGradient id="paint11_linear_376_204" x1="152.375" y1="158.167" x2="152.375" y2="329.833" gradientUnits="userSpaceOnUse">
<stop stop-color="#1A8CB0" stop-opacity="0.11"/>
<stop offset="1" stop-color="#EAFF6A"/>
</linearGradient>
<clipPath id="clip0_376_204">
<rect width="1728" height="1117" fill="white"/>
</clipPath>
</defs>
</svg>
