<svg width="1728" height="1117" viewBox="0 0 1728 1117" fill="none" xmlns="http://www.w3.org/2000/svg">
<g clip-path="url(#clip0_265_47)">
<rect width="1728" height="1117" fill="white"/>
<path fill-rule="evenodd" clip-rule="evenodd" d="M185.542 671.841C258.886 682.751 270.629 786.887 320.324 841.921C355.705 881.103 409.288 900.014 433.8 946.769C461.47 999.546 489.819 1064.03 465.229 1118.31C440.751 1172.34 365.791 1174.76 315.947 1206.92C270.151 1236.47 238.288 1285.05 185.542 1298.76C122.268 1315.22 40.2216 1337.16 -5.61549 1290.54C-52.9819 1242.37 4.62268 1157.25 -16.649 1093.13C-38.165 1028.27 -134.497 993.904 -126.534 926.034C-118.815 860.249 -33.2568 838.8 18.0993 796.969C73.4781 751.862 114.894 661.334 185.542 671.841Z" fill="url(#paint0_linear_265_47)"/>
<ellipse cx="85" cy="88" rx="19" ry="20" fill="url(#paint1_linear_265_47)" fill-opacity="0.13"/>
<ellipse cx="454.107" cy="452.99" rx="19" ry="20" transform="rotate(6.38729 454.107 452.99)" fill="url(#paint2_linear_265_47)" fill-opacity="0.13"/>
<ellipse cx="1543" cy="995" rx="19" ry="20" fill="url(#paint3_linear_265_47)" fill-opacity="0.13"/>
<ellipse cx="845" cy="204" rx="19" ry="20" fill="url(#paint4_linear_265_47)" fill-opacity="0.13"/>
<ellipse cx="1332" cy="63" rx="19" ry="20" fill="url(#paint5_linear_265_47)" fill-opacity="0.13"/>
<ellipse cx="1633" cy="53" rx="19" ry="20" fill="url(#paint6_linear_265_47)" fill-opacity="0.13"/>
<ellipse cx="589.5" cy="88.5" rx="84.5" ry="75.5" fill="white"/>
<path d="M662.5 88.5C662.5 122.663 631.069 152.5 589.5 152.5C547.931 152.5 516.5 122.663 516.5 88.5C516.5 54.3374 547.931 24.5 589.5 24.5C631.069 24.5 662.5 54.3374 662.5 88.5Z" stroke="url(#paint7_linear_265_47)" stroke-opacity="0.13" stroke-width="23"/>
<ellipse cx="1229.5" cy="1014.5" rx="84.5" ry="75.5" fill="white"/>
<path d="M1302.5 1014.5C1302.5 1048.66 1271.07 1078.5 1229.5 1078.5C1187.93 1078.5 1156.5 1048.66 1156.5 1014.5C1156.5 980.337 1187.93 950.5 1229.5 950.5C1271.07 950.5 1302.5 980.337 1302.5 1014.5Z" stroke="url(#paint8_linear_265_47)" stroke-opacity="0.13" stroke-width="23"/>
<path d="M1282.17 305.629V428.371C1279.38 425.939 1276.76 423.364 1274.3 420.646C1271.84 417.928 1269.55 415.138 1267.42 412.277V321.723C1269.55 318.862 1271.84 316.072 1274.3 313.354C1276.76 310.636 1279.38 308.061 1282.17 305.629ZM1321.5 285.029V448.971C1318.06 447.969 1314.7 446.861 1311.42 445.645C1308.14 444.429 1304.95 443.034 1301.83 441.46V292.54C1304.95 290.966 1308.14 289.571 1311.42 288.355C1314.7 287.139 1318.06 286.031 1321.5 285.029ZM1390.33 445.752V288.248C1407.71 294.972 1421.88 305.343 1432.86 319.363C1443.84 333.382 1449.33 349.261 1449.33 367C1449.33 384.739 1443.84 400.618 1432.86 414.637C1421.88 428.657 1407.71 439.028 1390.33 445.752ZM1351 452.833C1349.36 452.833 1347.72 452.798 1346.08 452.726C1344.44 452.655 1342.81 452.547 1341.17 452.404V281.596C1342.81 281.453 1344.44 281.345 1346.08 281.274C1347.72 281.202 1349.36 281.167 1351 281.167C1354.28 281.167 1357.56 281.31 1360.83 281.596C1364.11 281.882 1367.39 282.311 1370.67 282.883V451.117C1367.39 451.689 1364.11 452.118 1360.83 452.404C1357.56 452.69 1354.28 452.833 1351 452.833Z" fill="url(#paint9_linear_265_47)" fill-opacity="0.12"/>
<path d="M1474.17 830.629V953.371C1471.38 950.939 1468.76 948.364 1466.3 945.646C1463.84 942.928 1461.55 940.138 1459.42 937.277V846.723C1461.55 843.862 1463.84 841.072 1466.3 838.354C1468.76 835.636 1471.38 833.061 1474.17 830.629ZM1513.5 810.029V973.971C1510.06 972.969 1506.7 971.861 1503.42 970.645C1500.14 969.429 1496.95 968.034 1493.83 966.46V817.54C1496.95 815.966 1500.14 814.571 1503.42 813.355C1506.7 812.139 1510.06 811.031 1513.5 810.029ZM1582.33 970.752V813.248C1599.71 819.972 1613.88 830.343 1624.86 844.362C1635.84 858.382 1641.33 874.261 1641.33 892C1641.33 909.739 1635.84 925.618 1624.86 939.637C1613.88 953.657 1599.71 964.028 1582.33 970.752ZM1543 977.833C1541.36 977.833 1539.72 977.798 1538.08 977.726C1536.44 977.654 1534.81 977.547 1533.17 977.404V806.596C1534.81 806.453 1536.44 806.345 1538.08 806.274C1539.72 806.202 1541.36 806.167 1543 806.167C1546.28 806.167 1549.56 806.31 1552.83 806.596C1556.11 806.882 1559.39 807.311 1562.67 807.883V976.117C1559.39 976.689 1556.11 977.118 1552.83 977.404C1549.56 977.69 1546.28 977.833 1543 977.833Z" fill="url(#paint10_linear_265_47)" fill-opacity="0.12"/>
<path d="M76.1665 182.629V305.371C73.3804 302.939 70.7582 300.364 68.2998 297.646C65.8415 294.928 63.5471 292.138 61.4165 289.277V198.723C63.5471 195.862 65.8415 193.072 68.2998 190.354C70.7582 187.636 73.3804 185.061 76.1665 182.629ZM115.5 162.029V325.971C112.058 324.969 108.698 323.861 105.421 322.645C102.143 321.429 98.9471 320.034 95.8332 318.46V169.54C98.9471 167.966 102.143 166.571 105.421 165.355C108.698 164.139 112.058 163.031 115.5 162.029ZM184.333 322.752V165.248C201.705 171.972 215.882 182.343 226.862 196.362C237.843 210.382 243.333 226.261 243.333 244C243.333 261.739 237.843 277.618 226.862 291.637C215.882 305.657 201.705 316.028 184.333 322.752ZM145 329.833C143.361 329.833 141.722 329.798 140.083 329.726C138.444 329.654 136.805 329.547 135.167 329.404V158.596C136.805 158.453 138.444 158.345 140.083 158.274C141.722 158.202 143.361 158.167 145 158.167C148.278 158.167 151.555 158.31 154.833 158.596C158.111 158.882 161.389 159.311 164.667 159.883V328.117C161.389 328.689 158.111 329.118 154.833 329.404C151.555 329.69 148.278 329.833 145 329.833Z" fill="url(#paint11_linear_265_47)" fill-opacity="0.12"/>
</g>
<defs>
<linearGradient id="paint0_linear_265_47" x1="173.812" y1="671" x2="173.812" y2="1318.57" gradientUnits="userSpaceOnUse">
<stop stop-color="#1A8CB0" stop-opacity="0.07"/>
<stop offset="1" stop-color="#EAFF6A" stop-opacity="0.09"/>
</linearGradient>
<linearGradient id="paint1_linear_265_47" x1="85" y1="68" x2="85" y2="108" gradientUnits="userSpaceOnUse">
<stop stop-color="#EAFF6A"/>
<stop offset="1" stop-color="#1A8CB0" stop-opacity="0.15"/>
</linearGradient>
<linearGradient id="paint2_linear_265_47" x1="454.107" y1="432.99" x2="454.107" y2="472.99" gradientUnits="userSpaceOnUse">
<stop stop-color="#EAFF6A"/>
<stop offset="1" stop-color="#1A8CB0" stop-opacity="0.15"/>
</linearGradient>
<linearGradient id="paint3_linear_265_47" x1="1543" y1="975" x2="1543" y2="1015" gradientUnits="userSpaceOnUse">
<stop stop-color="#EAFF6A"/>
<stop offset="1" stop-color="#1A8CB0" stop-opacity="0.15"/>
</linearGradient>
<linearGradient id="paint4_linear_265_47" x1="845" y1="184" x2="845" y2="224" gradientUnits="userSpaceOnUse">
<stop stop-color="#EAFF6A"/>
<stop offset="1" stop-color="#1A8CB0" stop-opacity="0.15"/>
</linearGradient>
<linearGradient id="paint5_linear_265_47" x1="1332" y1="43" x2="1332" y2="83" gradientUnits="userSpaceOnUse">
<stop stop-color="#EAFF6A"/>
<stop offset="1" stop-color="#1A8CB0" stop-opacity="0.15"/>
</linearGradient>
<linearGradient id="paint6_linear_265_47" x1="1633" y1="33" x2="1633" y2="73" gradientUnits="userSpaceOnUse">
<stop stop-color="#EAFF6A"/>
<stop offset="1" stop-color="#1A8CB0" stop-opacity="0.15"/>
</linearGradient>
<linearGradient id="paint7_linear_265_47" x1="589.5" y1="13" x2="589.5" y2="164" gradientUnits="userSpaceOnUse">
<stop stop-color="#EAFF6A"/>
<stop offset="1" stop-color="#1A8CB0" stop-opacity="0.14"/>
</linearGradient>
<linearGradient id="paint8_linear_265_47" x1="1229.5" y1="939" x2="1229.5" y2="1090" gradientUnits="userSpaceOnUse">
<stop stop-color="#EAFF6A"/>
<stop offset="1" stop-color="#1A8CB0" stop-opacity="0.14"/>
</linearGradient>
<linearGradient id="paint9_linear_265_47" x1="1358.37" y1="281.167" x2="1358.37" y2="452.833" gradientUnits="userSpaceOnUse">
<stop stop-color="#1A8CB0" stop-opacity="0.11"/>
<stop offset="1" stop-color="#EAFF6A"/>
</linearGradient>
<linearGradient id="paint10_linear_265_47" x1="1550.37" y1="806.167" x2="1550.37" y2="977.833" gradientUnits="userSpaceOnUse">
<stop stop-color="#1A8CB0" stop-opacity="0.11"/>
<stop offset="1" stop-color="#EAFF6A"/>
</linearGradient>
<linearGradient id="paint11_linear_265_47" x1="152.375" y1="158.167" x2="152.375" y2="329.833" gradientUnits="userSpaceOnUse">
<stop stop-color="#1A8CB0" stop-opacity="0.11"/>
<stop offset="1" stop-color="#EAFF6A"/>
</linearGradient>
<clipPath id="clip0_265_47">
<rect width="1728" height="1117" fill="white"/>
</clipPath>
</defs>
</svg>
