<svg width="80" height="71" viewBox="0 0 80 71" fill="none" xmlns="http://www.w3.org/2000/svg">
<ellipse cx="40" cy="35.5" rx="40" ry="35.5" fill="#DCF4FF"/>
<path d="M46.8138 26.6871C46.6933 26.5314 46.5628 26.383 46.4232 26.2428C45.9028 25.7209 45.2677 25.3278 44.5683 25.0947L42.272 24.349C42.095 24.2866 41.9417 24.1709 41.8333 24.0178C41.7248 23.8647 41.6667 23.6818 41.6667 23.4943C41.6667 23.3067 41.7248 23.1238 41.8333 22.9707C41.9417 22.8176 42.095 22.7019 42.272 22.6395L44.5683 21.8938C45.2578 21.6559 45.8832 21.2617 46.395 20.7423C46.8928 20.2371 47.2705 19.6266 47.5 18.9562L47.519 18.8994L48.2653 16.6048C48.3278 16.428 48.4437 16.2748 48.5968 16.1665C48.75 16.0582 48.933 16 49.1207 16C49.3085 16 49.4915 16.0582 49.6447 16.1665C49.7978 16.2748 49.9137 16.428 49.9762 16.6048L50.7225 18.8994C50.9545 19.597 51.3462 20.2309 51.8663 20.7507C52.3867 21.2705 53.021 21.6619 53.7192 21.8938L56.0155 22.6395L56.0613 22.651C56.2383 22.7134 56.3917 22.8291 56.5 22.9822C56.6085 23.1353 56.6667 23.3182 56.6667 23.5057C56.6667 23.6933 56.6085 23.8762 56.5 24.0293C56.3917 24.1824 56.2383 24.2981 56.0613 24.3605L53.765 25.1062C53.067 25.3381 52.4325 25.7295 51.9123 26.2493C51.3922 26.7691 51.0005 27.403 50.7683 28.1006L50.022 30.3952C50.0153 30.4142 50.008 30.433 50 30.4515C49.9342 30.6045 49.8273 30.7369 49.6907 30.8335C49.5373 30.9418 49.3543 31 49.1667 31C48.979 31 48.796 30.9418 48.6427 30.8335C48.4895 30.7252 48.3737 30.572 48.3113 30.3952L47.565 28.1006C47.3963 27.5888 47.1418 27.1111 46.8138 26.6871ZM59.6382 33.022L58.3625 32.6077C57.9747 32.4788 57.6222 32.2614 57.3332 31.9726C57.0442 31.6838 56.8265 31.3317 56.6977 30.9441L56.283 29.6693C56.2483 29.5711 56.184 29.486 56.0988 29.4258C56.0138 29.3656 55.9122 29.3333 55.8078 29.3333C55.7035 29.3333 55.6018 29.3656 55.5167 29.4258C55.4317 29.486 55.3673 29.5711 55.3327 29.6693L54.918 30.9441C54.7917 31.3289 54.5778 31.6793 54.2935 31.9679C54.0092 32.2565 53.6618 32.4755 53.2787 32.6077L52.003 33.022C51.9047 33.0567 51.8195 33.1208 51.7592 33.206C51.699 33.291 51.6667 33.3927 51.6667 33.4968C51.6667 33.601 51.699 33.7027 51.7592 33.7877C51.8195 33.8727 51.9047 33.937 52.003 33.9717L53.2787 34.386C53.6672 34.5155 54.02 34.7338 54.3092 35.0238C54.5982 35.3137 54.8155 35.6672 54.9435 36.0558L55.3582 37.3307C55.3928 37.4288 55.4572 37.514 55.5423 37.5742C55.6273 37.6343 55.729 37.6667 55.8333 37.6667C55.9377 37.6667 56.0393 37.6343 56.1243 37.5742C56.2095 37.514 56.2738 37.4288 56.3085 37.3307L56.7232 36.0558C56.8522 35.6683 57.0697 35.3162 57.3587 35.0273C57.6477 34.7387 58.0002 34.5212 58.388 34.3923L59.6637 33.978C59.762 33.9433 59.8472 33.8792 59.9075 33.794C59.9677 33.709 60 33.6073 60 33.5032C60 33.399 59.9677 33.2973 59.9075 33.2123C59.8472 33.1273 59.762 33.063 59.6637 33.0283L59.6382 33.022ZM36.5146 22.1661C37.9323 21.2572 39.6168 20.955 41.2118 21.2594C40.9243 21.4399 40.6712 21.6731 40.4667 21.9484C40.164 22.3902 40.0013 22.9129 40 23.4484C40.0002 23.5141 40.0028 23.5797 40.008 23.6449C39.2627 23.6434 38.517 23.852 37.8638 24.2708L26.0507 31.8433L37.835 39.5423C39.1503 40.4018 40.8497 40.4018 42.165 39.5423L50.0805 34.371C50.1447 34.5337 50.2295 34.6885 50.3333 34.8317C50.5923 35.2003 50.9592 35.4798 51.3833 35.6317L52.2848 35.917L51.6667 36.321V45.5833C51.6667 45.8537 51.579 46.1168 51.4167 46.3333L51.4148 46.3357L51.4128 46.3385L51.4077 46.3452L51.394 46.363L51.3682 46.3955L51.3518 46.4158C51.3173 46.4585 51.2698 46.5158 51.2088 46.5855C51.087 46.7247 50.9115 46.9138 50.6802 47.136C50.2175 47.5802 49.5293 48.158 48.5978 48.7312C46.7265 49.8828 43.8978 51 40 51C36.1021 51 33.2735 49.8828 31.4022 48.7312C30.4707 48.158 29.7825 47.5802 29.3199 47.136C29.0885 46.9138 28.913 46.7247 28.7911 46.5855C28.7201 46.5042 28.6502 46.4218 28.5851 46.3357L28.5833 46.3333C28.4211 46.1168 28.3333 45.8537 28.3333 45.5833V36.321L25 34.1432V43.0833C25 43.7737 24.4403 44.3333 23.75 44.3333C23.0597 44.3333 22.5 43.7737 22.5 43.0833V31.8333C22.5 31.3825 22.7386 30.9874 23.0965 30.7675L36.5146 22.1661ZM43.5323 41.6353C41.3862 43.0375 38.6138 43.0375 36.4676 41.6353L30.8333 37.9542V45.1145C30.8947 45.1787 30.9672 45.252 31.0512 45.3327C31.4024 45.6697 31.9512 46.1337 32.7124 46.602C34.2265 47.5338 36.6062 48.5 40 48.5C43.3938 48.5 45.7735 47.5338 47.2877 46.602C48.0488 46.1337 48.5977 45.6697 48.9488 45.3327C49.0328 45.252 49.1053 45.1787 49.1667 45.1145V37.9542L43.5323 41.6353Z" fill="#1A8CB0"/>
</svg>
