<svg width="80" height="71" viewBox="0 0 80 71" fill="none" xmlns="http://www.w3.org/2000/svg">
<ellipse cx="40" cy="35.5" rx="40" ry="35.5" fill="#FFD7D7"/>
<path d="M47.8743 19.6995C48.3623 19.2113 49.1538 19.2113 49.642 19.6995L56.3086 26.3662C56.7968 26.8543 56.7968 27.6458 56.3086 28.1339C55.8205 28.6221 55.029 28.6221 54.541 28.1339L53.7571 27.3502L50.9345 30.1668L55.0505 34.2829C55.5386 34.771 55.5386 35.5624 55.0505 36.0505C54.5623 36.5387 53.771 36.5387 53.2828 36.0505L50.8333 33.6012L39.4316 45.0029C38.2595 46.1749 36.6698 46.8334 35.0122 46.8334H30.9344L25.4672 52.3005C24.979 52.7887 24.1876 52.7887 23.6994 52.3005C23.2113 51.8124 23.2113 51.021 23.6994 50.5329L29.1666 45.0655V40.9877C29.1666 39.3302 29.8251 37.7405 30.9972 36.5684L32.4485 35.117C32.4488 35.1167 32.4482 35.1174 32.4485 35.117C32.4488 35.1167 32.4501 35.1155 32.4504 35.1152L35.782 31.7836C35.7822 31.7833 35.7817 31.7839 35.782 31.7836C35.7822 31.7833 35.7833 31.7823 35.7835 31.782L39.1148 28.4508C39.1151 28.4504 39.1156 28.4499 39.1161 28.4495C39.1165 28.4491 39.117 28.4486 39.1175 28.4482L42.3988 25.1667L39.9495 22.7173C39.4613 22.2291 39.4613 21.4376 39.9495 20.9495C40.4376 20.4613 41.229 20.4613 41.7171 20.9495L45.8333 25.0657L48.656 22.2491L47.8743 21.4673C47.3861 20.9791 47.3861 20.1876 47.8743 19.6995ZM40 31.1011L38.4345 32.6667L39.6338 33.8662C40.122 34.3544 40.122 35.1457 39.6338 35.6339C39.1456 36.122 38.3543 36.122 37.8661 35.6339L36.6666 34.4345L35.1011 36L36.3005 37.1995C36.7886 37.6877 36.7886 38.479 36.3005 38.9672C35.8124 39.4554 35.0209 39.4554 34.5328 38.9672L33.3333 37.7679L32.765 38.3362C32.0617 39.0394 31.6666 39.9932 31.6666 40.9877V44.3334H35.0122C36.0068 44.3334 36.9606 43.9382 37.6638 43.235L49.0655 31.8334L44.1666 26.9345L41.7678 29.3334L42.9671 30.5328C43.4553 31.021 43.4553 31.8124 42.9671 32.3006C42.479 32.7887 41.6876 32.7887 41.1995 32.3006L40 31.1011ZM51.9893 25.5824L50.4238 24.0169L47.6011 26.8334L49.1666 28.399L51.9893 25.5824Z" fill="#FA1414"/>
</svg>
