<svg width="80" height="71" viewBox="0 0 80 71" fill="none" xmlns="http://www.w3.org/2000/svg">
<ellipse cx="40" cy="35.5" rx="40" ry="35.5" fill="#C8FFC4"/>
<path d="M36.9173 18.0907L36.909 18.0785L36.8862 18.094C28.5186 18.9826 22 26.0634 22 34.6667C22 38.5205 23.3081 42.069 25.5045 44.8922L25.5037 44.8957L25.5079 44.8965C28.2448 48.412 32.3595 50.8018 37.0408 51.255C37.1197 50.4615 37.313 49.6313 37.604 48.794C33.8955 48.519 30.5843 46.8163 28.2182 44.2337L28.2187 44.2313C28.3095 43.8323 28.3508 43.3675 28.3841 42.9637L28.4 42.7685C28.4296 42.4025 28.4582 42.0485 28.5058 41.6915C28.6228 40.8142 28.8231 40.227 29.1334 39.8947C29.5332 39.4663 29.9437 39.394 30.8018 39.243L30.9568 39.2157C31.3966 39.1377 31.9844 39.0205 32.552 38.7112C33.1562 38.382 33.6677 37.8773 34.0535 37.137C34.4424 36.3907 34.4125 35.6185 34.3069 35.0112C34.2219 34.523 34.059 34.0038 33.9238 33.5732C33.8968 33.487 33.8708 33.4043 33.8468 33.3262C33.5056 32.214 33.4629 31.671 33.7445 31.2435C34.0514 30.7777 34.472 30.6692 35.5658 30.3872L35.707 30.3508C36.816 30.0643 38.3195 29.5845 39.1905 27.7298C40.1337 25.7215 39.6022 23.4559 39.024 21.9196C38.8248 21.3905 38.6053 20.9094 38.401 20.5024C38.4893 20.5008 38.578 20.5 38.6667 20.5C41.4453 20.5 44.0373 21.3 46.2245 22.6823C45.9057 23.1079 45.4773 23.6687 44.998 24.2673C43.9483 25.578 42.7647 26.928 41.959 27.5323C41.5892 27.8098 41.3042 28.1727 41.1482 28.614C40.9957 29.0449 40.9947 29.4691 41.0565 29.8364C41.1732 30.5295 41.542 31.1794 41.8683 31.6767C42.1403 32.0913 42.4603 32.5107 42.7288 32.8627C42.7928 32.9467 42.854 33.0268 42.9108 33.1022C43.0673 33.3095 43.1937 33.4823 43.2903 33.6295C43.3377 33.7017 43.3725 33.7592 43.397 33.8042C43.4197 33.8455 43.429 33.8682 43.429 33.8682C43.4973 34.053 43.5683 34.3505 43.6525 34.7668C43.664 34.8238 43.6758 34.8833 43.688 34.9448C44.4283 34.6152 45.2308 34.3603 46.0892 34.2033C46.0095 33.8142 45.91 33.3698 45.7743 33.0023C45.5917 32.5078 45.1935 31.9767 44.9062 31.596C44.8338 31.5002 44.7617 31.4053 44.691 31.3126C44.4275 30.9669 44.1768 30.6379 43.9585 30.305C43.7007 29.9121 43.5758 29.6405 43.5335 29.4757C44.6172 28.638 45.9465 27.0823 46.9493 25.8299C47.443 25.2136 47.883 24.6378 48.2123 24.1987C50.8747 26.6279 52.607 30.0591 52.8127 33.8958C53.7783 33.9715 54.6117 34.099 55.3282 34.247C55.1055 25.2362 47.7312 18 38.6667 18C38.0758 18 37.4922 18.0308 36.9173 18.0907ZM26.0599 41.1357C25.0628 39.1963 24.5 36.9973 24.5 34.6667C24.5 27.8532 29.31 22.1632 35.7195 20.807C35.7752 20.9002 35.841 21.0135 35.9135 21.1442C36.1443 21.5604 36.4358 22.1403 36.6842 22.8003C37.2082 24.1922 37.4198 25.6188 36.9277 26.6671C36.5537 27.4632 36.0198 27.6879 35.0816 27.9303C34.9987 27.9518 34.9084 27.9735 34.8122 27.9968C33.9245 28.211 32.5261 28.5484 31.6567 29.8683C30.655 31.3892 31.1482 33.054 31.4568 34.0595C31.4914 34.1722 31.5247 34.279 31.556 34.3793C31.6885 34.8043 31.7899 35.1292 31.8439 35.4397C31.907 35.8025 31.8612 35.9342 31.8365 35.9817C31.669 36.303 31.5035 36.4355 31.356 36.5158C31.1718 36.6162 30.9331 36.6808 30.5203 36.7542C30.4529 36.766 30.3799 36.778 30.3028 36.7907C29.5319 36.9168 28.3056 37.1177 27.3059 38.1887C26.4966 39.0557 26.2013 40.2067 26.0599 41.1357ZM38.6788 51.675C38.7768 50.0662 39.5035 48.105 40.734 46.2562C41.1313 45.58 41.6237 44.8947 42.21 44.227C43.986 42.2042 46.5515 40.4295 49.7025 39.6418C50.149 39.5302 50.4205 39.0777 50.3088 38.6312C50.1972 38.1847 49.7448 37.9133 49.2983 38.0248C45.7827 38.9038 42.9315 40.8792 40.9575 43.1273C40.5112 43.6357 40.106 44.1625 39.7462 44.6985C39.5967 44.1965 39.5005 43.6288 39.5003 43C39.5003 41.4717 40.2782 39.8112 41.5118 38.4953C42.7695 37.1538 44.589 36.0698 46.8363 35.7723C51.5045 35.1542 54.4002 35.6708 56.1078 36.1508C56.5783 36.2832 56.9287 36.6775 57.0045 37.1603C57.0803 37.6432 56.8677 38.126 56.4603 38.396C56.3648 38.4595 56.2118 38.6125 56.0267 38.963C55.8437 39.3092 55.6718 39.7648 55.4943 40.338C55.3475 40.8117 55.2092 41.3238 55.0588 41.8803L54.9633 42.2332C54.7778 42.9162 54.573 43.6497 54.3267 44.3767C53.8398 45.8138 53.1533 47.3463 51.9988 48.5232C50.8002 49.7452 49.1733 50.5062 47.0003 50.5062C44.7853 50.5062 43.238 49.6088 42.2498 48.5755C41.577 49.8087 41.2263 50.9702 41.1742 51.8272C41.1322 52.5162 40.5395 53.0407 39.8503 52.9987C39.1613 52.9567 38.6368 52.364 38.6788 51.675Z" fill="#227E1A"/>
</svg>
