<svg width="80" height="71" viewBox="0 0 80 71" fill="none" xmlns="http://www.w3.org/2000/svg">
<ellipse cx="40" cy="35.5" rx="40" ry="35.5" fill="#EDDFFF"/>
<path d="M52.9166 22.6666C54.9876 22.6666 56.6666 24.3456 56.6666 26.4166V35.5963C55.9176 35.095 55.0733 34.725 54.1666 34.5191V26.4166C54.1666 25.7263 53.607 25.1666 52.9166 25.1666H27.0833C26.393 25.1666 25.8333 25.7263 25.8333 26.4166V45.591C25.8333 46.2813 26.393 46.841 27.0833 46.841H46.6666V49.341H27.0833C25.0122 49.341 23.3333 47.662 23.3333 45.591V26.4166C23.3333 24.3456 25.0122 22.6666 27.0833 22.6666H52.9166ZM42.0871 37.6601H46.2673C45.765 38.409 45.394 39.2533 45.1873 40.1601H42.0871C41.3968 40.1601 40.8371 39.6006 40.8371 38.9101C40.8371 38.2773 41.3073 37.7543 41.9175 37.6716L42.0871 37.6601ZM36.25 36.8333C36.9403 36.8333 37.5 37.393 37.5 38.0833V38.9045L37.4868 39.0855C37.2155 40.9403 35.6628 41.8348 33.3332 41.8348C31.0035 41.8348 29.4508 40.9395 29.1798 39.0835L29.1666 38.903V38.0833C29.1666 37.393 29.7263 36.8333 30.4166 36.8333H36.25ZM33.3333 30.1703C34.714 30.1703 35.8333 31.2895 35.8333 32.6703C35.8333 34.051 34.714 35.1701 33.3333 35.1701C31.9526 35.1701 30.8334 34.051 30.8334 32.6703C30.8334 31.2895 31.9526 30.1703 33.3333 30.1703ZM42.0871 31.8333H49.5833C50.2736 31.8333 50.8333 32.3929 50.8333 33.0833C50.8333 33.7161 50.363 34.2391 49.753 34.322L49.5833 34.3333H42.0871C41.3968 34.3333 40.8371 33.7736 40.8371 33.0833C40.8371 32.4505 41.3073 31.9275 41.9175 31.8447L42.0871 31.8333ZM58.3333 41.8333C58.3333 45.055 55.7216 47.6666 52.5 47.6666C49.2783 47.6666 46.6666 45.055 46.6666 41.8333C46.6666 38.6116 49.2783 36 52.5 36C55.7216 36 58.3333 38.6116 58.3333 41.8333ZM48.3333 48.0703V53.1431C48.3333 54.1973 49.608 54.7253 50.3533 53.9798L52.5 51.8333L54.6466 53.9798C55.392 54.7253 56.6666 54.1973 56.6666 53.1431V48.0703C55.475 48.868 54.0418 49.3333 52.5 49.3333C50.9581 49.3333 49.525 48.868 48.3333 48.0703Z" fill="#9747FF"/>
</svg>
